<svg xmlns="http://www.w3.org/2000/svg" viewBox="0 0 156.89 157.48"><title>Asset 3</title><g id="Layer_2" data-name="Layer 2"><g id="Layer_1-2" data-name="Layer 1"><path d="M60.91,0a79.7,79.7,0,0,1,8.31,2C80.77,6,88.62,13.83,92.6,25.46c.11.33.25.65.39,1,1.78-1.47,3.42-3,5.23-4.33a37,37,0,0,1,57.93,22.54c3.12,15-3.77,30.55-17.3,38.86a7.53,7.53,0,0,0-3.5,4.14,33.84,33.84,0,0,1-8.2,12.66Q99.2,128.25,71.23,156.16c-1.76,1.77-2.72,1.76-4.51,0q-27.81-27.74-55.6-55.5C-3.69,85.79-3.72,62.5,11.11,48c2.53-2.47,5.7-4.3,8.65-6.31a1.78,1.78,0,0,0,1-1.89,36.18,36.18,0,0,1,8.75-26.87,2.32,2.32,0,0,1,3.38-.5C34,13.32,34,14.6,33,16c-4.88,6.29-7.12,11.7-7.57,18.5l34,8.18c.19-.19.28-.25.32-.33,2.84-5.19,6.41-6.76,11.85-4.48,3.6,1.5,6.84,3.84,10.28,5.73a4.34,4.34,0,0,0,2.36.65,13,13,0,0,1,8.78,2.07,3.36,3.36,0,0,0,2,.29c3.76-.35,7.51-.88,11.28-1.08a12,12,0,0,1,4.31.94c3.33,1.15,4.92,3.67,5.15,7.1.06.87,0,1.73,0,2.65l9.18,2.23c.3.07.6.14.89.23,1.55.45,2.2,1.43,1.91,2.81s-1.37,2-3,1.6c-2.8-.61-5.58-1.31-8.37-2l-1.47-.31c-.39,1.59-.76,3.11-1.18,4.81,2.8.69,5.46,1.35,8.13,2C128.87,69.28,136,71,143.1,72.71a1.65,1.65,0,0,0,2.08-.67c.73-1.1,1.53-2.16,2.43-3.42l-10.33-2.5c-.79-.19-1.59-.37-2.38-.59a2.35,2.35,0,0,1-2-2.81,2.31,2.31,0,0,1,3-1.62c4.24,1,8.46,2,12.69,3,.3.07.6.11,1,.19a29.77,29.77,0,0,0,2.5-10.67,32.15,32.15,0,0,0-28-33.69c-12.24-1.48-22.19,2.83-29.9,12.39-.79,1-1.49,2-3,1.68s-1.71-1.58-2-2.82C86.58,17.45,76.74,7.62,63,5.11A31.32,31.32,0,0,0,41.67,8.8c-.44.24-.87.53-1.33.76a2.29,2.29,0,1,1-2.28-4A36.62,36.62,0,0,1,52.82.3c.45-.06.88-.2,1.32-.3Zm7.24,66.72c-1.3-.11-2.3-.13-3.29-.28-5.32-.78-8.67-3.26-8.64-8.88,0-1-.46-1.16-1.26-1.35-6.32-1.49-12.63-3-19-4.56l-7.86-1.88-.37.37,42.79,69.77c23.29-14.32,46.63-28.35,69.91-42.81-.47-.35-.54-.44-.63-.46q-13.35-3.23-26.7-6.46c-.87-.21-1.26.09-1.71.8-2.22,3.45-5.09,4.7-9.06,3.78a61.29,61.29,0,0,1-5.84-1.93c.2.42.4.87.63,1.3L104.51,88a2.5,2.5,0,0,1,0,3,2.47,2.47,0,0,1-2.93.66c-2.61-.74-5.22-1.49-7.85-2.12a2.14,2.14,0,0,0-1.7.41c-2,1.78-3.9,3.64-5.81,5.49-.86.83-1.73,1.48-3,.93s-1.42-1.58-1.42-2.79c0-5.74-.05-11.48-.09-17.22,0-.54,0-1.08-.1-2.1-.49.89-.76,1.35-1,1.82q-4,7.71-8,15.41c-.52,1-1.17,1.81-2.45,1.73s-1.84-.91-2.21-2c-.81-2.37-1.73-4.71-2.45-7.11a2.53,2.53,0,0,0-2.33-2c-2.42-.4-4.8-1-7.22-1.45a2.54,2.54,0,0,1-2.35-1.88c-.32-1.31.46-2.09,1.45-2.77q5.87-4.08,11.71-8.2C67.16,67.51,67.53,67.2,68.15,66.72ZM21.68,45.82c-.7.39-1.38.74-2,1.15C2,58.18-.57,82.41,14.41,97.42q25.32,25.35,50.7,50.63c1.27,1.26,2.45,2.61,3.71,4,.59-.57,1-.9,1.32-1.26q20.52-20.44,41.05-40.91c5-5,9.87-10,14.7-15.08a45.21,45.21,0,0,0,3.64-5l-.33-.32c-3.12,1.9-6.3,3.74-9.35,5.74a34.53,34.53,0,0,0-5,4c-5.1,5-10.1,10-15.14,15.08L70.83,143c-1.59,1.59-2.72,1.72-4.08.37q-6.07-6-12.08-12.06a2.29,2.29,0,1,1,3.22-3.23c3.18,3.13,6.32,6.29,9.48,9.43.39.39.8.76,1.09,1l30.33-30.48c-.13.08-.57.3-1,.56L71.71,124.57c-2.06,1.25-3,1-4.3-1q-5.31-8.64-10.6-17.29c-.29-.46-.61-.91-.9-1.35-6.41,2.8-11.57,0-13.94-3.43a11.42,11.42,0,0,1-2-7.26,11,11,0,0,1,4.51-8.09l-4-6.48c-4.87,5.79-9.25,7.34-14.37,5.13a11.18,11.18,0,0,1-6.6-11c.6-5.63,4-8.79,11.09-10.22L25.33,54.9c-.67.42-1.28.78-1.86,1.18a22.74,22.74,0,0,0-2.94,34.69c9.85,9.93,19.79,19.78,29.69,29.67,1.32,1.32,1.44,2.58.41,3.62s-2.33.93-3.63-.37c-10-10-20-19.83-29.9-29.89a27.3,27.3,0,0,1,5.23-42.46c.34-.21.65-.46,1-.68Zm56.57.88c-3.17-2.07-6-4.42-9.81-5-2.33-.37-4,.31-4.61,2.56-1.22,4.26-2.26,8.59-3.06,12.95-.44,2.38.65,3.59,3,4.31,3.63,1.13,7.17.2,10.81-.36C72.68,55.5,73.85,50.74,78.25,46.7ZM94.16,65.48c2.86,2.4,6.67,4.36,9.25,4.81,2.23.39,3.82-.13,4.44-2.26a133.46,133.46,0,0,0,3.23-13.66c.39-2.18-.69-3.24-2.86-3.91-3.77-1.17-7.44-.16-11.26.39C99.17,56.4,98.29,61.22,94.16,65.48Zm-.62-9.11A7.64,7.64,0,1,0,85.92,64,7.66,7.66,0,0,0,93.54,56.37Zm-35.45-9.3L25.3,39.18c.23,1.62.43,2.92.59,4.22a1.6,1.6,0,0,0,1.46,1.47c6.42,1.51,12.83,3.07,19.24,4.61l10.32,2.46ZM30.4,68.3a6.38,6.38,0,0,0,.05,12.76C34,81,37,78.13,36.8,74.71,36.61,72.11,34.21,68,30.4,68.3Zm31.13,8.78c1.8.39,3.24.78,4.7,1a3.23,3.23,0,0,1,2.9,2.53c.43,1.42,1,2.8,1.59,4.52L80,67.23c-2-1.67-2-1.67-4-.28q-2.52,1.76-5,3.52C67.9,72.6,64.85,74.75,61.53,77.08ZM86.4,68.73V88.87c1.31-1.25,2.4-2.16,3.34-3.21a3.36,3.36,0,0,1,4-1c1.36.48,2.79.78,4.46,1.23L89.92,70.29C88.8,68.18,88.8,68.18,86.4,68.73ZM47,90.2a6.18,6.18,0,0,0-1.5,8.26,6.1,6.1,0,0,0,8,2.29Z"/></g></g></svg>