<svg xmlns="http://www.w3.org/2000/svg" viewBox="0 0 122.67 122.71"><title>Asset 4</title><g id="Layer_2" data-name="Layer 2"><g id="Layer_1-2" data-name="Layer 1"><path d="M63.54,113.86c-2.43-.22-4.87-.35-7.29-.7a6.71,6.71,0,0,1-5.91-5.78c-2.7-17.71,4.09-36.12,19.6-46.11,6.8-4.38,14.35-6.87,22.23-8.39,3.62-.7,7.28-1.16,10.9-1.81A28.63,28.63,0,0,0,106.64,50a4.58,4.58,0,0,1,4.83,1.21c1.55,1.44,2.92,3.07,2.09,5.27-1.58,4.24-1.73,8.73-2.56,13.09-1.84,9.7-4.69,19-10.84,26.94-7.25,9.32-16.93,14.66-28.53,16.6a37.83,37.83,0,0,1-4,.47c-1.37.08-2.74,0-4.12,0Zm10.76-5.39c1.82-.11,2.64-1.45,3.73-2.39.8-.69.81-1.23,0-2-1.89-1.81-3.72-3.68-5.56-5.54a1.86,1.86,0,0,1-.27-2.66,1.74,1.74,0,0,1,2.61-.38,1,1,0,0,0,1.54-.19c.92-1,1.84-1.92,2.83-2.81.78-.7.66-1.21,0-1.88-1.64-1.57-3.22-3.2-4.83-4.81-2.42-2.43-2.42-2.43-4.88,0-2.06,2.06-2.06,2.06,0,4.15a4.53,4.53,0,0,1,0,6.84c-1,1-2,2-3,3a1,1,0,0,0,0,1.71c1.94,1.89,3.79,3.85,5.76,5.7A9.93,9.93,0,0,0,74.3,108.47Zm14.44-50.9c-1.78.23-2.62,1.53-3.69,2.49-.75.66-.75,1.2,0,1.9,1.53,1.44,3,3,4.47,4.44.24.24.49.48.71.74a2,2,0,0,1,0,2.68,1.81,1.81,0,0,1-2.65,0c-.91-1-1.51-.75-2.28.13a32.15,32.15,0,0,1-2.54,2.55c-.65.6-.64,1.07,0,1.69,1.7,1.64,3.35,3.33,5,5,2.36,2.36,2.36,2.36,4.7,0,2.16-2.16,2.16-2.16.08-4.33a4.5,4.5,0,0,1,0-6.65q1.52-1.58,3.1-3.09c.61-.58.74-1.07.07-1.71-1.57-1.52-3.06-3.13-4.67-4.6A11.5,11.5,0,0,0,88.74,57.57ZM58.47,84.72a4.75,4.75,0,0,0-.74.49c-.53.5-1.06,1-1.54,1.55a3.15,3.15,0,0,0,0,4.61c1.9,2,3.88,3.87,5.8,5.83.59.62,1,.54,1.61,0,.94-1,1.91-2,2.9-2.91.67-.62.58-1.11,0-1.71-2.44-2.41-4.85-4.85-7.28-7.26A6.1,6.1,0,0,0,58.47,84.72ZM73.79,70.87a2.48,2.48,0,0,0-.59.35c-1.16,1.14-2.35,2.26-3.42,3.48A1.37,1.37,0,0,0,70,76c2.17,2.26,4.41,4.44,6.61,6.67.61.62,1.08.51,1.62-.06,1-1,1.91-2,2.91-2.91.69-.64.55-1.11-.06-1.7-2.17-2.13-4.31-4.3-6.47-6.45C74.36,71.29,74.07,71.1,73.79,70.87ZM92.6,89.76a4.32,4.32,0,0,0-.45-.67c-2.27-2.28-4.52-4.58-6.85-6.79a1.41,1.41,0,0,0-1.36.07c-1.1.95-2.07,2-3.12,3-.6.57-.45,1,.06,1.51q3.34,3.3,6.64,6.64c.52.53,1,.61,1.51,0,1-1,2.06-2.06,3.08-3.1A5.28,5.28,0,0,0,92.6,89.76ZM60.89,109.57c1.69-.15,2.5-1.36,3.52-2.25s1-1.39,0-2.27c-1.73-1.59-3.33-3.33-5-5-2.41-2.34-1.66-2.59-4.3.11a3.12,3.12,0,0,0,0,4.68,47.28,47.28,0,0,0,3.56,3.52A10.52,10.52,0,0,0,60.89,109.57ZM107.9,62a5,5,0,0,0-.77-1.56c-1.29-1.43-2.65-2.8-4.07-4.09a3,3,0,0,0-4,0,9.7,9.7,0,0,0-1.82,1.8,1.45,1.45,0,0,0,0,1.36c2.22,2.32,4.5,4.58,6.79,6.83a1.2,1.2,0,0,0,.87.34C105.93,66.42,107.91,63.58,107.9,62Zm-2,12.72a9.26,9.26,0,0,0-1.09-2.1c-1.56-1.7-3.24-3.29-4.87-4.94a.85.85,0,0,0-1.41,0Q97,69.29,95.43,70.81a.92.92,0,0,0,0,1.53c2.13,2.11,4.23,4.24,6.37,6.34a1.22,1.22,0,0,0,1,.31C103.94,78.61,105.69,76,105.88,74.74ZM84.61,104.09c1.24-.22,4-2.12,4.21-3.15a1.13,1.13,0,0,0-.3-.89c-1.64-1.69-3.32-3.34-5-5a.85.85,0,0,0-1.41,0c-1,1.07-2.11,2.13-3.18,3.18-.52.51-.42.93.07,1.41,1.17,1.13,2.26,2.35,3.49,3.41A9.4,9.4,0,0,0,84.61,104.09Zm-25-24.88a5,5,0,0,0,.75,1.62A46.5,46.5,0,0,0,64,84.56a1.32,1.32,0,0,0,1.26-.06c1.09-1,2.07-2,3.11-3a.92.92,0,0,0,0-1.53C66.8,78.3,65.18,76.65,63.52,75a1.25,1.25,0,0,0-1-.33C61.44,75,59.6,77.7,59.59,79.21Zm42.13,6a2.58,2.58,0,0,0-.34-1.13c-1.13-1.32-2.33-2.6-3.58-3.82-.15-.15-.84,0-1.08.23-1.08,1-2.07,2-3.12,3.05a.92.92,0,0,0,0,1.53c1.4,1.37,2.77,2.79,4.19,4.15a1.24,1.24,0,0,0,1,.34C99.87,89.22,101.71,86.56,101.72,85.21ZM78.2,61.59c-1.87.2-2.7,1.58-3.8,2.56-.66.58-.66,1.08,0,1.7,1.36,1.31,2.68,2.64,4,4,.56.58,1,.65,1.6,0,1-1,2-2,3-3,.63-.59.56-1,0-1.6-.85-.79-1.59-1.7-2.48-2.42A14.66,14.66,0,0,0,78.2,61.59Zm-7.4,6.27c-.31-.34-.53-.76-.88-.92a1.11,1.11,0,0,0-1,.18c-1.13,1-2.2,2.16-3.29,3.25-.53.53-.35,1,.11,1.43a.87.87,0,0,0,1.43,0c1-1,2.06-2.05,3.08-3.1A4.79,4.79,0,0,0,70.8,67.86ZM92.38,98.29A2.46,2.46,0,0,0,93,98c1.19-1.17,2.41-2.32,3.51-3.57.18-.2,0-1-.28-1.24a1.14,1.14,0,0,0-1.14-.09c-1.18,1-2.29,2.19-3.37,3.35a1.12,1.12,0,0,0-.16,1C91.68,97.81,92.09,98,92.38,98.29Zm16.89-41.37a1.84,1.84,0,0,0-.36-2.84c-.92-.8-1.54-.21-2.37.15Z"/><path d="M41,115c-.4.49-.83,1-1.21,1.47a27.87,27.87,0,0,1-3,4.1,7.35,7.35,0,0,1-10.26.06,8.3,8.3,0,0,1-2.12-2.54,8.9,8.9,0,0,0-3.93-4A35.89,35.89,0,0,1,9.05,102.71a1.93,1.93,0,0,1,.38-2.92c1-.64,2-.37,2.85.83a36.15,36.15,0,0,0,9.21,9.61c.49.34,1,.64,1.85,1.17-.32-.74-.48-1.18-.68-1.6a105.06,105.06,0,0,1-9.1-29.63,76.69,76.69,0,0,1,1.27-26.72c.55-2.6,1.26-5.17,1.93-7.73.39-1.47,1.35-2.1,2.5-1.74s1.6,1.35,1.18,2.81a90.37,90.37,0,0,0-3.64,21.9c-.34,10.72,2.06,20.93,5.77,30.9.9,2.44,1.93,4.83,2.91,7.24l.3-.09c-.37-2-.83-4.1-1.08-6.18Q23.35,89.2,22.12,77.82c-.18-1.71.53-2.66,1.79-2.71s1.89.82,2.06,2.45c.69,6.7,1.22,13.41,2.18,20.07.76,5.34,2.06,10.6,3.12,15.89.05.25.16.48.37,1.11.76-3.49,1.49-6.61,2.1-9.75.65-3.36,1.18-6.75,1.78-10.13.25-1.41,1.08-2.13,2.21-2S39.55,94,39.3,95.41c-.62,3.59-1.26,7.17-1.88,10.76-.05.25-.05.5-.09.94,1-.82,2-1.34,3-.46,1.75,1.55,0,2.95-.31,4.43,2.37-.83,2.69-1.81,2.11-3.82a36.61,36.61,0,0,1,.85-21.92C49.11,66.71,61.44,54.11,80.22,48c1.42-.46,2.45,0,2.85,1.12s-.22,2.08-1.67,2.57C74.55,54,68.05,57,62.67,61.89,53.22,70.5,47,81,44.94,93.74a28.45,28.45,0,0,0,1.16,13.72,6.09,6.09,0,0,1,0,2.72c-.14,1-.61,1.87-.78,2.84-.63,3.6,1.77,6.2,5.23,5.09,3.1-1,5.82-.52,8.82.08,7.93,1.6,15.55,0,22.82-3.19,15.65-6.92,25.81-18.7,30.28-35.2,1.48-5.48,2.21-11.17,3.44-16.73a37.32,37.32,0,0,1,2.18-6.66c.88-2.07.88-3.14-.7-4.74q-2.82-2.84-5.65-5.64c-1.47-1.45-2.75-1.68-4.52-.62-3.28,2-7,2.24-10.61,2.77-1.4.2-2.79.45-4.19.69s-2.36-.33-2.56-1.48.43-2,1.84-2.29c2.62-.45,5.27-.72,7.86-1.28a25.54,25.54,0,0,0,5.82-1.88c3.34-1.63,6.4-1.31,9.05,1.32,2,2,4.09,4.05,6.1,6.11a6.59,6.59,0,0,1,1.35,7.93c-1.69,3-2.18,6.18-2.64,9.46-1.4,10-3.84,19.75-9,28.49-9,15.19-22.47,24.21-39.93,27a32.63,32.63,0,0,1-14.78-1,4,4,0,0,0-1.72,0,34.59,34.59,0,0,1-4.79.77,7.47,7.47,0,0,1-7.48-6.18l-.15-.73Z"/><path d="M21.13,21.38a63.11,63.11,0,0,1-6.36-.75A19.12,19.12,0,0,1,0,2.7C0,.72.64,0,2.6.06,6,.09,9.49-.08,12.89.27A18.29,18.29,0,0,1,26.53,8.73L27,9.4c.17-.42.29-.71.4-1,.56-1.43,1.09-2.88,1.67-4.31C30.84-.32,32.86-.18,36.51.14c3,.26,4.59,3.37,3.41,6.32A36.48,36.48,0,0,0,37.3,17.15a1.3,1.3,0,0,0,1.09,1.63,6.33,6.33,0,0,1,4.38,4.51,20.07,20.07,0,0,0,3.72,7A85.38,85.38,0,0,1,59.84,53.62a6.37,6.37,0,0,1,.37,1.09,1.82,1.82,0,0,1-1.12,2.09,1.78,1.78,0,0,1-2.29-.59,3,3,0,0,1-.4-.8A82.49,82.49,0,0,0,43.57,32.79a22.17,22.17,0,0,1-4.22-7.52l-.35.14c.54,1.52,1,3.07,1.63,4.54a113.62,113.62,0,0,1,8.14,25.94c.62,3.59.93,7.23,1.34,10.85a1.93,1.93,0,0,1-1.67,2.33c-1.17.14-2-.61-2.14-2a95.17,95.17,0,0,0-4.83-24.14c-1.16-3.44-2.5-6.82-3.76-10.22l-.37.1c.29,1.68.57,3.36.86,5a184.26,184.26,0,0,1,3,36.24c-.13,4.76-.61,9.5-1,14.25-.1,1.37-1,2.2-2.1,2.1A2,2,0,0,1,36.36,88c.31-4.54.81-9.07.93-13.61.39-14.43-1.38-28.67-4.14-42.82-.52-2.69-.76-5.43-1.14-8.15a2.07,2.07,0,0,0-.54-1.23,5.47,5.47,0,0,0-.29.83c-1.32,8.56-2.85,17.09-3.88,25.68-.82,6.84-1,13.76-1.51,20.65,0,.43,0,.86,0,1.29,0,1.37-.82,2.25-2,2.22a1.94,1.94,0,0,1-1.87-2.18c.1-3.73.17-7.47.4-11.19a207.1,207.1,0,0,1,3.43-26.26.63.63,0,0,0-.23-.58c-.81,2-1.62,4.09-2.42,6.13-.19.48-.34,1-.55,1.44A1.92,1.92,0,0,1,20,41.38a1.88,1.88,0,0,1-1-2.55c1.05-2.76,2.17-5.5,3.25-8.25a37.7,37.7,0,0,0,1.69-5.21c-.78,1.56-1.45,3.19-2.37,4.66s-2.15,2.89-3.21,4.35-2.06,2.85-3,4.31-2,3-2.87,4.58A60.5,60.5,0,0,0,4.69,63,53.08,53.08,0,0,0,8.61,94c.15.35.34.69.47,1a1.94,1.94,0,0,1-.85,2.54,1.88,1.88,0,0,1-2.6-.93,66.05,66.05,0,0,1-2.51-6.18C-2.16,74.51-.75,59.13,7.43,44.5c2.8-5,6.14-9.7,9.39-14.43a21.48,21.48,0,0,0,3.5-6.66A16.51,16.51,0,0,1,21.13,21.38Zm4.55-3.82A15.52,15.52,0,0,0,19.25,6.67C14.64,3.29,9.36,3.91,4.09,4a7.25,7.25,0,0,0,.13,1.22c1.48,6,5.07,10.08,11,11.52C18.53,17.48,22,17.29,25.68,17.56Zm7.69.7a38.79,38.79,0,0,1,3-13.3,1,1,0,0,0-.1-.81c-.42-.55-2.8-.27-3.12.37a33,33,0,0,0-3.58,13.74Z"/><path d="M86.48,49.1a1.92,1.92,0,0,1-2-1.91,1.94,1.94,0,0,1,1.88-1.89,1.9,1.9,0,1,1,.09,3.8Z"/></g></g></svg>