<svg xmlns="http://www.w3.org/2000/svg" viewBox="0 0 64.49 113.34"><title>Asset 1</title><g id="Layer_2" data-name="Layer 2"><g id="Layer_1-2" data-name="Layer 1"><path d="M57.52,0c1.39.91,1.67,2.36,1.75,3.85.72,13.62-7.57,23.61-17.19,27a1.43,1.43,0,0,0-.8.66c-1.71,4.55-3.38,9.12-5.05,13.69a.92.92,0,0,0,0,.32c1-.75,1.13-1.8,1.49-2.87A31.14,31.14,0,0,1,41,36c3.28-5.1,8.25-8,13.85-10,2.12-.72,4.32-1.23,6.51-1.74a2,2,0,0,1,2.57,2.53c-2.47,8.49-7.45,14.93-15.73,18.45a11.2,11.2,0,0,1-8.44.23c-.71-.26-1,.12-1.38.54a21.2,21.2,0,0,0-5,11.12c-.56,4-1.46,7.91-2.2,11.87a5.11,5.11,0,0,0,0,.62c1.79-1.55,3.51-3,5.21-4.55a1.16,1.16,0,0,0,.28-.7c1.28-8.79,6.11-14.93,14-18.72,3.33-1.59,6.73-3,10.48-3.35,2.75-.23,3.77.76,3,3.4C61.62,55.1,56.4,62.4,47,66.12a15,15,0,0,1-8.71.66,1.9,1.9,0,0,0-1.47.36c-2.14,2-4.22,4-6.3,6.07a1.93,1.93,0,0,0-.43.87,83.76,83.76,0,0,1-4,13,.81.81,0,0,0,0,.22,4,4,0,0,0,2.79-2.29C31,81.5,32.56,77.6,36.2,75.13A32.62,32.62,0,0,1,47.49,70.2c3.95-.89,8-1.57,12-2.22a11.59,11.59,0,0,1,3.52.13c1.34.2,1.71.9,1.42,2.23a3.8,3.8,0,0,1-.34,1c-2.63,5-5.55,9.72-10.31,13A26.25,26.25,0,0,1,30.51,88a2.61,2.61,0,0,0-1.63.12c-2.83,1.23-5.06,3-6,6.15-.36,1.17-1.11,2.22-1.55,3.44a4.37,4.37,0,0,0,.9-.81c2.49-3.92,6.33-5.7,10.68-6.41a47.47,47.47,0,0,1,8.26-.46c3.14,0,6.27.34,9.39.64,1.1.1,2.44.24,2.87,1.51s-.43,2.36-1.27,3.25a27.44,27.44,0,0,1-14.94,8.31,23.45,23.45,0,0,1-10.11.17,10.59,10.59,0,0,1-5.76-3.47,9.35,9.35,0,0,0-3.79,3A67.17,67.17,0,0,1,12,110.58a15.71,15.71,0,0,1-3.62,2.69A1.51,1.51,0,0,1,7,113c-.51-.48-.08-.92.41-1.22,4-2.4,6.69-6,9.05-9.86,1.32-2.18,2.57-4.4,3.79-6.63a3.9,3.9,0,0,0,.13-1.43s0-.07,0-.11c-.58-2.47-1.67-4.16-4.5-4.9-3.34-.88-5.65-3.51-7.54-6.38-2.56-3.9-4-8.29-5.48-12.66Q1.51,65.93.21,62.12c-.65-1.87.25-3.28,2.23-3.39A13.06,13.06,0,0,1,10.19,61a20.38,20.38,0,0,1,9.12,13.11c.89,3.84,1.52,7.75,2.11,11.64A11.88,11.88,0,0,1,21,88.94a2.7,2.7,0,0,0,0,1c.2.67.49,1.31.84,2.2.57-1.22,1.14-2.22,1.52-3.28C24.7,85,26.05,81,27.4,77.08a1.53,1.53,0,0,0,.09-1c-.57-1.6-1.16-3.19-1.83-4.75a2.2,2.2,0,0,0-1-.8,31.24,31.24,0,0,1-9.28-7.09,20,20,0,0,1-4.61-12.54,65.78,65.78,0,0,1,1.34-14.2A1.85,1.85,0,0,1,15,35.23a27.68,27.68,0,0,1,5.23,3.45c6.74,5.76,9.86,13.18,9.63,22a20.23,20.23,0,0,1-1.88,8.37c-.73,1.5-.17,2.57.52,4.05.7-3.59,1.36-6.91,2-10.23.44-2.29.9-4.57,1.25-6.86a6.07,6.07,0,0,0-.15-2.36c-.69-2.67-1.45-5.33-2.24-8A4,4,0,0,0,28.36,44c-4.76-4.66-6.27-10.39-5.54-16.82a25.73,25.73,0,0,1,4-10.92c.79-1.27,1.25-2.75,1.92-4.1.5-1,.9-2.29,2.23-2.38s2.17,1,2.75,2.11a27.65,27.65,0,0,1,3.52,16.41,34,34,0,0,1-5.8,15.73c-.18.26-.42.63-.36.88a47.19,47.19,0,0,0,1.64,5.8c.89-3.06,1.66-6.15,2.69-9.16,1.2-3.49,2.62-6.9,3.92-10.35A1.94,1.94,0,0,0,39.52,30c-1.81-4.9-1.1-9.66.65-14.39a21.61,21.61,0,0,1,9.06-11Q52.92,2.31,56.63,0ZM26.59,68.52c.26-.7.42-1.1.55-1.51a25.76,25.76,0,0,0-11.7-29.88c-1.49-.87-1.69-.78-2,.95,0,.11,0,.22-.05.33-.3,2.53-.56,5.06-.92,7.58-1.38,9.64,2.68,17.69,11.24,22.19.24.12.49.2.92.38-.19-.58-.32-1-.45-1.33q-2.51-7.2-5-14.41c-.24-.67-.29-1.26.51-1.53s1.06.29,1.27.89c.37,1.12.73,2.24,1.12,3.36C23.52,59.77,25,64,26.59,68.52ZM31.83,86.4c3.44,1.63,9,1.71,13.28.37,8.5-2.64,14-8.57,17.76-16.39.43-.9-.06-1-.79-1-2.06.2-4.12.38-6.17.65-5.14.66-10.2,1.65-14.9,4a18.56,18.56,0,0,0-9.47,9.52c-.14.35-.26.71-.46,1.23l.84-.34,15.26-5.89c.62-.23,1.28-.38,1.58.45s-.29,1.09-.93,1.32c-1.89.64-3.78,1.26-5.64,2C38.72,83.63,35.28,85,31.83,86.4Zm6.61-23.14a1.3,1.3,0,0,0,.34-.09q5.85-4.81,11.7-9.64a3.82,3.82,0,0,1,1.2-.7,1,1,0,0,1,.87.24,1,1,0,0,1-.13.89,6.62,6.62,0,0,1-1.19,1.44Q46,59.78,40.63,64.12c-.48.39-1,.75-1.53,1.19,2.59.64,6.52,0,9.69-1.59,6-3,9.88-7.95,12.45-14a45.73,45.73,0,0,0,1.59-5.06c.19-.66,0-1.09-.81-1-7.12,1.11-13.5,3.74-18.52,9.09A18.89,18.89,0,0,0,38.44,63.26ZM57.06,1.2c-3,2.09-5.87,3.87-8.51,5.93-5.29,4.11-8.42,9.42-8.4,16.3,0,1.66.12,3.31.18,5h.31l.5-1L46.44,18c.14-.25.28-.62.5-.7a2,2,0,0,1,1.3-.07c.18.07.29.8.14,1.1-.37.79-.92,1.5-1.36,2.27l-4.61,8.25a1.25,1.25,0,0,0,.89-.11A25.24,25.24,0,0,0,57.68,3.63,16.35,16.35,0,0,0,57.06,1.2ZM10.53,71.28a13.14,13.14,0,0,1,1.7,1.83q2.43,4,4.69,8.15c1,1.82,1.85,3.73,2.76,5.6l.39-.08c-.46-3-.79-6.1-1.4-9.11a27.61,27.61,0,0,0-5.43-12.23A12.51,12.51,0,0,0,2.62,60.49c-1.18,0-1.36.29-.92,1.42.34.85.79,1.67,1.08,2.54C4,68,5,71.63,6.3,75.16a22.89,22.89,0,0,0,6.11,9.76,12.93,12.93,0,0,0,5.61,3,11.3,11.3,0,0,0-.51-1.25c-2.39-4.36-4.77-8.73-7.2-13.07A1.64,1.64,0,0,1,10.53,71.28Zm18-29.71c0-.39-.07-.78-.07-1.17,0-3.13-.17-6.28.09-9.39a35.59,35.59,0,0,1,1.54-6.43c.09-.34.7-.54,1.07-.81.22.45.46.89.65,1.34,0,.11-.07.28-.12.42A31.07,31.07,0,0,0,30.07,38c.09,1.52.33,3,.52,4.67.23-.2.31-.23.34-.29,3.62-6.59,5.7-13.52,4.62-21.13a19.49,19.49,0,0,0-4.4-9.91c-1,1.86-2,3.58-2.91,5.34-2,3.89-3.72,7.88-4.09,12.31A16.11,16.11,0,0,0,28.52,41.57Zm-5.6,57.9v.46a8.72,8.72,0,0,0,5.54,2.69,26.09,26.09,0,0,0,22.67-8.38,4.26,4.26,0,0,0,.58-.81c.33-.56.32-1-.48-1.05s-1.69-.19-2.53-.27c-4.41-.43-8.81-1-13.25-.55A17,17,0,0,0,26,95.13c-.73.6-1.36,1.32-2,2a68.7,68.7,0,0,1,12.83-1.53c.69,0,1.42-.08,1.48.88s-.72,1-1.38,1c-2.29.17-4.58.21-6.84.53S25.28,99,22.92,99.47ZM40.26,43.79l.19.36a11.23,11.23,0,0,0,8.27-.81c7-3.44,11.31-9.17,13.6-16.52.31-1,0-1.31-1-1a86.64,86.64,0,0,0-9.44,3.06A21,21,0,0,0,40.82,39.21c-.35.75-.61,1.54-1,2.58l.64-.41c3.21-2.24,6.4-4.49,9.61-6.74.58-.4,1.21-.72,1.71.07s-.2,1.18-.75,1.53c-1.25.79-2.54,1.52-3.74,2.38C44.91,40.31,42.59,42.06,40.26,43.79Z"/></g></g></svg>