<svg width="32" height="35" viewBox="0 0 32 35" fill="none" xmlns="http://www.w3.org/2000/svg">
<g clip-path="url(#clip0_5_33)">
<path d="M31.3598 6.59119C31.3598 6.27409 31.2377 6.02211 30.9537 5.79279C28.7314 4.01479 26.5141 2.22829 24.3043 0.4418C24.0203 0.212472 23.7113 0.116211 23.3127 0.116211C16.4515 0.121873 9.58781 0.119042 2.7266 0.121873C1.22929 0.121873 0.362297 0.809857 0.362297 2.01029C0.359806 12.0781 0.359806 22.1487 0.364788 32.2165C0.364788 32.4571 0.407142 32.7034 0.486865 32.9356C0.711087 33.5868 1.33642 33.9039 2.07635 34.1162C11.2645 34.1162 20.4526 34.1162 29.6383 34.1162C30.7718 33.8104 31.3598 33.2017 31.3598 32.2165C31.3548 23.6747 31.3548 15.1329 31.3598 6.59119ZM24.3292 2.13486C25.8464 3.35512 27.3263 4.54705 28.8136 5.74183C28.8037 5.74749 28.7713 5.77297 28.7389 5.77297C27.5032 5.7758 26.27 5.77863 25.0342 5.77297C24.6406 5.77014 24.3441 5.6031 24.3367 5.28317C24.3142 4.24128 24.3292 3.19657 24.3292 2.13486ZM28.9183 32.9837C20.2135 32.9837 11.5111 32.9837 2.80632 32.9837C1.98168 32.9837 1.76992 32.8082 1.76992 32.1287C1.76992 22.1147 1.76992 12.1036 1.76992 2.08956C1.76992 1.43272 1.98916 1.24869 2.7839 1.24869C9.34365 1.24869 15.9009 1.24869 22.4607 1.24869C22.5827 1.24869 22.7048 1.24869 22.8942 1.24869C22.8942 2.1292 22.8892 2.96724 22.8967 3.80528C22.9016 4.35736 22.8817 4.91228 22.949 5.46153C23.0436 6.24012 23.8484 6.86582 24.82 6.88846C26.3447 6.92527 27.8719 6.90828 29.3991 6.91395C29.561 6.91395 29.723 6.91395 29.9273 6.91395C29.9372 7.06117 29.9497 7.17725 29.9497 7.29616C29.9497 15.5831 29.9497 23.8701 29.9497 32.157C29.9472 32.8082 29.7255 32.9837 28.9183 32.9837Z" fill="#CB9C3F"/>
<path d="M12.3556 17.664C17.0469 17.664 21.7132 17.664 26.3994 17.664C26.3994 17.2988 26.3994 16.9477 26.3994 16.574C21.6982 16.574 17.0319 16.574 12.3556 16.574C12.3556 16.9477 12.3556 17.2959 12.3556 17.664Z" fill="#CB9C3F"/>
<path d="M26.3994 10.9003C21.7107 10.9003 17.0444 10.9003 12.3532 10.9003C12.3532 11.2683 12.3532 11.6166 12.3532 11.9875C17.0643 11.9875 21.7306 11.9875 26.3994 11.9875C26.3994 11.6137 26.3994 11.2627 26.3994 10.9003Z" fill="#CB9C3F"/>
<path d="M12.3532 23.3292C17.0643 23.3292 21.7306 23.3292 26.3994 23.3292C26.3994 22.9527 26.3994 22.6045 26.3994 22.2421C21.7107 22.2421 17.0419 22.2421 12.3532 22.2421C12.3532 22.6101 12.3532 22.9584 12.3532 23.3292Z" fill="#CB9C3F"/>
<path d="M12.3532 28.9861C17.0643 28.9861 21.7306 28.9861 26.3994 28.9861C26.3994 28.6124 26.3994 28.2613 26.3994 27.8989C21.7107 27.8989 17.0444 27.8989 12.3532 27.8989C12.3532 28.267 12.3532 28.6152 12.3532 28.9861Z" fill="#CB9C3F"/>
<path d="M9.51051 17.1006C9.50304 16.172 8.54884 15.4132 7.39784 15.4217C6.24434 15.4274 5.29762 16.1918 5.29762 17.1176C5.29762 18.0434 6.24184 18.8078 7.39534 18.8135C8.56379 18.822 9.51798 18.0491 9.51051 17.1006ZM6.71022 17.1318C6.69776 16.8373 6.99673 16.5797 7.37043 16.5655C7.76656 16.5485 8.09293 16.7892 8.10289 17.1034C8.11286 17.4064 7.82635 17.6527 7.44766 17.6697C7.05403 17.6867 6.72019 17.4432 6.71022 17.1318Z" fill="#CB9C3F"/>
<path d="M7.41029 9.75367C6.24932 9.75084 5.28018 10.5407 5.29762 11.475C5.31506 12.4065 6.26177 13.1511 7.42275 13.1455C8.58621 13.1398 9.51051 12.3867 9.50802 11.4496C9.50802 10.5181 8.5613 9.75367 7.41029 9.75367ZM7.3779 12.0073C7.01167 11.996 6.70025 11.7355 6.70524 11.4439C6.71022 11.1579 7.03659 10.8918 7.39285 10.8862C7.76905 10.8805 8.10289 11.1495 8.09791 11.4581C8.09542 11.7695 7.76905 12.0186 7.3779 12.0073Z" fill="#CB9C3F"/>
<path d="M7.38289 24.4844C8.54636 24.4986 9.513 23.7228 9.51051 22.7801C9.50553 21.8429 8.57625 21.0955 7.41279 21.0927C6.2543 21.0927 5.31008 21.8429 5.30011 22.7744C5.29015 23.6945 6.23686 24.4703 7.38289 24.4844ZM7.42026 22.228C7.79147 22.2336 8.09542 22.4771 8.1004 22.7772C8.10538 23.083 7.77154 23.3548 7.39535 23.3491C7.03908 23.3435 6.71271 23.0773 6.70773 22.7914C6.70275 22.4884 7.03659 22.2223 7.42026 22.228Z" fill="#CB9C3F"/>
<path d="M7.41777 26.7494C6.27423 26.7438 5.31008 27.511 5.29762 28.4312C5.28516 29.3711 6.24185 30.144 7.41777 30.1384C8.58123 30.1355 9.50802 29.3824 9.51051 28.4481C9.51051 27.5223 8.56878 26.7579 7.41777 26.7494ZM7.39036 29.0059C7.02413 29.0002 6.71022 28.7426 6.70773 28.451C6.70524 28.1509 7.05403 27.8762 7.42524 27.8847C7.78898 27.8932 8.1004 28.1509 8.10289 28.4453C8.10289 28.7567 7.77652 29.0144 7.39036 29.0059Z" fill="#CB9C3F"/>
</g>
<defs>
<clipPath id="clip0_5_33">
<rect width="31" height="34" fill="white" transform="translate(0.359741 0.116211)"/>
</clipPath>
</defs>
</svg>
