<svg width="81" height="80" viewBox="0 0 81 80" fill="none" xmlns="http://www.w3.org/2000/svg">
<path d="M41.5773 74.2508C40.0069 74.1204 38.3709 73.9899 36.8005 73.7942C34.7065 73.468 33.2669 72.098 32.9397 70.0104C31.1729 58.4633 35.6226 46.4596 45.7653 39.9358C50.215 37.0654 55.1227 35.4345 60.2922 34.4559C62.6479 33.9992 65.0691 33.673 67.4248 33.2816C68.2101 33.1511 68.9953 32.8249 69.7805 32.564C71.0238 32.1726 72.0054 32.4988 72.9215 33.3468C73.903 34.2602 74.8192 35.3692 74.2957 36.8044C73.2487 39.5444 73.1832 42.4801 72.5943 45.3506C71.4165 51.6786 69.5188 57.7457 65.5272 62.8995C60.7503 68.9666 54.4684 72.4894 46.8777 73.7289C46.027 73.8594 45.1764 73.9899 44.2602 74.0551C43.3441 74.1203 42.4935 74.0551 41.5773 74.0551C41.6428 74.1203 41.5773 74.1856 41.5773 74.2508ZM48.6445 70.728C49.8224 70.6628 50.3459 69.7494 51.0657 69.1623C51.5891 68.7056 51.5891 68.3794 51.0657 67.8575C49.8224 66.6833 48.6445 65.4437 47.4012 64.2695C46.8777 63.7476 46.7468 63.0952 47.2049 62.5081C47.6629 61.9209 48.3173 61.7904 48.9062 62.2471C49.2989 62.5733 49.626 62.4428 49.8878 62.1166C50.4767 61.4643 51.0657 60.8771 51.72 60.29C52.2435 59.8333 52.1781 59.5071 51.72 59.0505C50.673 58.0067 49.626 56.9629 48.5791 55.9191C47.0086 54.3534 47.0086 54.3534 45.3727 55.9191C43.9985 57.2891 43.9985 57.289 45.3727 58.659C46.7468 60.029 46.7468 61.7252 45.3727 63.0952C44.7183 63.7476 44.0639 64.4 43.4096 65.0523C43.017 65.4438 42.9515 65.7699 43.4096 66.1614C44.6529 67.4009 45.8962 68.6404 47.2049 69.8799C47.5975 70.2713 48.1864 70.467 48.6445 70.728ZM58.0674 37.5221C56.8895 37.6525 56.366 38.5006 55.6462 39.153C55.1882 39.6097 55.1227 39.9358 55.6462 40.3925C56.6278 41.3058 57.6093 42.3496 58.5909 43.263C58.7217 43.3934 58.9181 43.5892 59.0489 43.7196C59.507 44.3068 59.507 45.0244 59.0489 45.481C58.5909 45.9377 57.8056 46.0682 57.3476 45.481C56.7586 44.8287 56.366 45.0244 55.8425 45.5463C55.319 46.1334 54.7301 46.6553 54.2066 47.1772C53.7486 47.5686 53.814 47.8948 54.2066 48.2863C55.319 49.3301 56.366 50.4391 57.4784 51.5481C59.0489 53.1138 59.0489 53.1138 60.554 51.5481C61.9936 50.1129 61.9936 50.1129 60.6194 48.7429C59.3107 47.4382 59.3107 45.742 60.6194 44.4372C61.2738 43.7196 61.9281 43.0673 62.6479 42.4149C63.0406 42.0234 63.106 41.6973 62.7134 41.3058C61.6664 40.3273 60.6848 39.2835 59.6379 38.3049C59.1798 37.9787 58.5909 37.783 58.0674 37.5221ZM38.3055 55.2014C38.1092 55.3319 37.9783 55.3972 37.8475 55.5276C37.5203 55.8538 37.1277 56.18 36.8659 56.5062C36.0152 57.4848 36.0152 58.5938 36.8659 59.5071C38.1092 60.8119 39.4179 62.0514 40.6612 63.2909C41.0538 63.6823 41.381 63.6171 41.7082 63.2909C42.2971 62.6385 42.9515 61.9862 43.6059 61.399C44.0639 61.0076 43.9985 60.6814 43.6059 60.29C42.0354 58.7243 40.4649 57.1586 38.829 55.5276C38.6327 55.4624 38.5018 55.3319 38.3055 55.2014ZM48.3173 46.1987C48.1864 46.2639 48.0556 46.3291 47.9247 46.3944C47.1395 47.112 46.4197 47.8948 45.6999 48.6777C45.569 48.8082 45.6344 49.3301 45.8307 49.5258C47.2703 51.0262 48.7099 52.3962 50.1495 53.8967C50.5422 54.2881 50.8693 54.2229 51.1965 53.8315C51.7855 53.1791 52.4398 52.5267 53.0942 51.9396C53.5522 51.5481 53.4214 51.222 53.0288 50.8305C51.5891 49.4605 50.215 48.0253 48.7754 46.6553C48.7099 46.4596 48.5136 46.3291 48.3173 46.1987ZM60.6194 58.5286C60.4885 58.3329 60.4231 58.2024 60.2922 58.0719C58.7872 56.5714 57.3476 55.071 55.8425 53.6357C55.7117 53.5053 55.1227 53.5053 54.9264 53.701C54.2066 54.2881 53.5522 55.0057 52.8979 55.7233C52.5053 56.1148 52.6361 56.3757 52.9633 56.7019C54.4029 58.1371 55.8425 59.5724 57.2821 61.0076C57.6093 61.3338 57.9365 61.399 58.2637 61.0076C58.9181 60.29 59.6379 59.6376 60.2922 58.9852C60.4231 58.8548 60.4885 58.659 60.6194 58.5286ZM39.876 71.4456C40.9884 71.3151 41.5119 70.5323 42.1663 69.9451C42.7552 69.4232 42.8206 69.0318 42.1663 68.4447C41.0539 67.4009 40.0069 66.2918 38.8944 65.1828C37.324 63.6823 37.782 63.4866 36.0807 65.248C35.1646 66.2266 35.1646 67.3356 36.0807 68.3142C36.8005 69.0971 37.5857 69.8799 38.4364 70.5975C38.829 70.9889 39.4179 71.1847 39.876 71.4456ZM70.6312 40.3925C70.5658 40.1968 70.4349 39.6749 70.1077 39.3487C69.257 38.4354 68.4064 37.5221 67.4248 36.674C66.6396 36.0216 65.5926 36.0216 64.8074 36.674C64.3493 37.0002 63.9567 37.3916 63.6295 37.8482C63.4986 38.044 63.4986 38.5659 63.6295 38.7616C65.0691 40.262 66.5741 41.7625 68.0792 43.1977C68.2101 43.3282 68.4718 43.4587 68.6681 43.3934C69.3225 43.263 70.6312 41.4363 70.6312 40.3925ZM69.3225 48.6777C69.0607 48.221 68.9299 47.6991 68.6027 47.3077C67.5557 46.1987 66.5087 45.1549 65.3963 44.1111C65.0691 43.7849 64.8074 43.7849 64.4802 44.1111C63.8258 44.7634 63.1714 45.481 62.4516 46.1334C62.059 46.4596 62.1245 46.7858 62.4516 47.112C63.8258 48.482 65.2 49.852 66.6396 51.222C66.7705 51.3524 67.0976 51.4829 67.2939 51.4177C68.0137 51.222 69.1916 49.5258 69.3225 48.6777ZM55.3845 67.8575C56.1697 67.7271 58.0019 66.4876 58.1328 65.8352C58.1983 65.6395 58.0674 65.3785 57.9365 65.248C56.8895 64.139 55.7771 63.0952 54.6647 61.9862C54.3375 61.66 54.0757 61.66 53.7486 61.9862C53.0942 62.7038 52.3744 63.3561 51.6546 64.0738C51.3274 64.4 51.3928 64.6609 51.72 64.9871C52.5053 65.7047 53.2251 66.4875 54.0103 67.2052C54.4029 67.4661 54.9264 67.5966 55.3845 67.8575ZM39.0253 51.6134C39.0907 51.8091 39.2216 52.331 39.5488 52.6572C40.334 53.5053 41.1193 54.3534 41.97 55.071C42.1008 55.2014 42.6243 55.2014 42.8206 55.0057C43.5404 54.3534 44.1948 53.701 44.8492 52.9834C45.1764 52.6572 45.2418 52.331 44.8492 52.0048C43.8022 50.961 42.6898 49.852 41.6428 48.8082C41.5119 48.6777 41.1847 48.5472 40.9884 48.6124C40.2032 48.8734 39.0253 50.6348 39.0253 51.6134ZM66.5741 55.5276C66.5087 55.3972 66.5087 55.0057 66.3778 54.81C65.658 53.9619 64.8728 53.1138 64.0221 52.331C63.8912 52.2005 63.4986 52.331 63.3023 52.4615C62.5825 53.1138 61.9281 53.7662 61.2738 54.4838C60.9466 54.81 60.8812 55.1362 61.2738 55.4624C62.1899 56.3757 63.106 57.2891 64.0221 58.2024C64.153 58.3329 64.4802 58.4633 64.6765 58.3981C65.3963 58.1371 66.5741 56.441 66.5741 55.5276ZM51.1965 40.1316C49.9532 40.262 49.4297 41.1754 48.7099 41.8277C48.2519 42.2192 48.2519 42.5454 48.7099 42.9368C49.6261 43.7849 50.4767 44.633 51.3274 45.5463C51.72 45.9377 51.9818 46.0029 52.3744 45.5463C53.0288 44.8939 53.6831 44.2415 54.3375 43.5892C54.7301 43.1977 54.7301 42.9368 54.3375 42.5454C53.814 42.0235 53.2905 41.4363 52.7016 40.9796C52.2435 40.5882 51.72 40.3925 51.1965 40.1316ZM46.3542 44.2415C46.1579 44.0458 46.027 43.7196 45.7653 43.6544C45.569 43.5892 45.2418 43.6544 45.1109 43.7849C44.3911 44.4372 43.6713 45.2201 42.9515 45.8725C42.6243 46.1987 42.6898 46.5248 43.0169 46.7858C43.3441 47.112 43.6059 47.112 43.9331 46.7858C44.5874 46.1334 45.3072 45.4158 45.9616 44.7634C46.1579 44.633 46.2233 44.4372 46.3542 44.2415ZM60.4885 64.0738C60.6848 64.0085 60.8157 63.9433 60.8812 63.878C61.6664 63.0952 62.4516 62.3776 63.1714 61.5295C63.3023 61.399 63.1714 60.8771 62.9751 60.7466C62.8442 60.6162 62.3862 60.5509 62.1899 60.6814C61.4046 61.399 60.6848 62.1166 59.965 62.8342C59.8342 62.9647 59.7687 63.2909 59.8342 63.4866C60.0305 63.7476 60.2922 63.878 60.4885 64.0738ZM71.5473 37.0654C72.0708 36.3478 71.9399 35.7606 71.2856 35.2387C70.6967 34.7168 70.304 35.1083 69.7151 35.3692C70.3695 35.9564 70.9584 36.4783 71.5473 37.0654Z" fill="#CB9C3F"/>
<path d="M26.7886 74.9684C26.5268 75.2946 26.2651 75.6208 26.0033 75.947C25.3489 76.8603 24.8255 77.9041 24.0402 78.6217C22.0771 80.4484 19.3288 80.4484 17.3002 78.687C16.7767 78.2303 16.1878 77.6432 15.9261 77.056C15.4026 75.8165 14.4865 75.0989 13.374 74.4465C10.2985 72.6199 7.9428 70.0104 5.91427 67.0095C5.39077 66.2266 5.52165 65.509 6.17601 65.1176C6.83038 64.7261 7.48475 64.8566 8.00824 65.6395C9.64415 68.0532 11.6073 70.2061 14.0284 71.9023C14.3556 72.098 14.6828 72.2937 15.2063 72.6851C15.01 72.2285 14.8791 71.9023 14.7482 71.6413C11.869 65.4437 9.77503 59.0505 8.79348 52.331C7.9428 46.4596 8.40086 40.6535 9.64415 34.9125C9.97134 33.2164 10.4948 31.5202 10.8875 29.8893C11.1492 28.9107 11.8036 28.5193 12.5234 28.7802C13.3086 29.0412 13.5704 29.6935 13.3086 30.6069C11.9999 35.304 11.0838 40.0011 10.9529 44.8939C10.7566 51.8743 12.3271 58.5286 14.7482 65.0523C15.3371 66.618 15.9915 68.1837 16.6459 69.7494C16.7113 69.7494 16.7767 69.6842 16.8422 69.6842C16.5804 68.3142 16.3187 67.0094 16.1224 65.6395C15.5335 60.6814 14.9445 55.7233 14.421 50.8305C14.2902 49.7215 14.7482 49.0691 15.5989 49.0691C16.3841 49.0691 16.8422 49.591 16.9731 50.6348C17.4311 55.0057 17.7583 59.3767 18.4127 63.7476C18.9362 67.2052 19.7868 70.6628 20.4412 74.1203C20.4412 74.2508 20.5721 74.4465 20.7029 74.838C21.2264 72.5546 21.6845 70.5323 22.0771 68.5099C22.5352 66.2918 22.8624 64.0738 23.255 61.9209C23.3858 61.0076 23.9748 60.5509 24.6946 60.6162C25.4798 60.7466 25.8724 61.399 25.7416 62.3123C25.3489 64.6609 24.8909 67.0094 24.4983 69.358C24.4983 69.4885 24.4983 69.6842 24.4328 69.9451C25.0872 69.4232 25.7416 69.0971 26.3959 69.619C27.5084 70.6628 26.3959 71.5761 26.1996 72.4894C27.7701 71.9675 27.9664 71.3151 27.5738 70.0104C26.1996 65.1828 26.5922 60.3552 28.1627 55.7233C32.1544 43.4587 40.2031 35.2387 52.5051 31.2592C53.4213 30.9331 54.1411 31.2592 54.4028 31.9769C54.6646 32.6945 54.2719 33.3468 53.2904 33.673C48.7753 35.1735 44.5219 37.1306 41.0537 40.3273C34.8373 45.9377 30.7802 52.7877 29.406 61.0728C28.948 64.0738 29.1443 67.0747 30.1913 70.0104C30.3876 70.5323 30.2567 71.1847 30.1913 71.7718C30.1258 72.4242 29.7986 73.0113 29.6678 73.5984C29.2751 75.947 30.8456 77.6432 33.0705 76.9256C35.099 76.2732 36.8658 76.5994 38.8289 76.9908C43.9984 78.0346 48.9716 76.9908 53.7484 74.9032C63.9566 70.4018 70.6311 62.7038 73.5758 51.9396C74.5573 48.3515 75.0154 44.633 75.8006 41.0449C76.1278 39.5444 76.6513 38.1092 77.2402 36.674C77.8291 35.304 77.8291 34.6516 76.7822 33.6078C75.5388 32.3683 74.2955 31.1288 73.1177 29.9545C72.1361 29.0412 71.3509 28.8455 70.173 29.5631C68.0136 30.8678 65.5925 30.9983 63.2368 31.3897C62.3206 31.5202 61.4045 31.7159 60.4884 31.8464C59.5723 31.9769 58.9179 31.6507 58.7871 30.8678C58.6562 30.085 59.0488 29.4978 59.9649 29.3674C61.6663 29.1064 63.4331 28.9107 65.1344 28.5193C66.4432 28.2583 67.7519 27.8669 68.9298 27.2797C71.0892 26.2359 73.1177 26.4317 74.8845 28.1278C76.1932 29.4326 77.5674 30.7373 78.8761 32.1073C80.3157 33.5426 80.7083 35.5649 79.7922 37.2611C78.6798 39.2182 78.3526 41.3058 78.0909 43.4587C77.1748 49.9824 75.6043 56.3757 72.2016 62.0514C66.3123 71.9675 57.4783 77.8389 46.0924 79.6655C42.8205 80.1874 39.6141 79.9917 36.4077 79.0132C36.0806 78.8827 35.6225 79.0132 35.2953 79.0132C34.2483 79.1436 33.2013 79.5351 32.1544 79.5351C29.6678 79.5351 27.7701 77.9041 27.2466 75.4903C27.1812 75.3599 27.1812 75.1641 27.1812 75.0337C26.9849 75.0337 26.9194 75.0337 26.7886 74.9684Z" fill="#CB9C3F"/>
<path d="M13.8322 13.906C12.458 13.7756 11.0184 13.7103 9.64421 13.3841C4.21297 12.2099 0.155898 7.18657 0.0250248 1.70662C0.0250248 0.401864 0.417645 -0.0547996 1.72638 0.010438C3.95122 0.010438 6.2415 -0.0547996 8.46635 0.140913C12.2617 0.532339 15.2718 2.48947 17.3657 5.68611C17.4312 5.81658 17.4966 5.88182 17.6929 6.14277C17.8238 5.88182 17.8892 5.68611 17.9547 5.4904C18.3473 4.57707 18.6745 3.59851 19.0671 2.68518C20.2449 -0.185275 21.5537 -0.120037 23.9748 0.140913C25.9379 0.336626 26.9849 2.35899 26.1997 4.25088C25.2836 6.46896 24.6946 8.81751 24.4983 11.2313C24.4329 11.8184 24.5638 12.0794 25.2181 12.2751C26.6577 12.7318 27.7047 13.7756 28.0973 15.2108C28.5554 16.907 29.4715 18.4074 30.5185 19.7774C34.1829 24.4093 37.2585 29.4326 39.287 35.043C39.3524 35.304 39.4833 35.4997 39.5488 35.7606C39.6796 36.413 39.4179 36.8697 38.8289 37.1306C38.24 37.3916 37.7165 37.2611 37.3239 36.7392C37.193 36.6087 37.1276 36.413 37.0622 36.2173C35.0991 30.8026 32.1544 25.975 28.6863 21.4736C27.5084 19.9731 26.4614 18.4074 25.9379 16.5808C25.8725 16.5808 25.8071 16.646 25.7416 16.646C26.0688 17.6246 26.396 18.6684 26.7886 19.5817C29.1443 25.0617 31.1074 30.6069 32.089 36.4783C32.4816 38.8268 32.6779 41.1754 32.9397 43.5239C33.0051 44.372 32.547 44.9591 31.8272 45.0244C31.042 45.0896 30.5185 44.633 30.4531 43.7196C30.1259 38.3049 29.0135 33.0859 27.3121 27.9974C26.5269 25.7793 25.6762 23.5612 24.8255 21.3431C24.7601 21.3431 24.6946 21.4084 24.5638 21.4084C24.7601 22.5174 24.9564 23.6264 25.1527 24.6703C26.5269 32.4988 27.3121 40.3925 27.1158 48.2863C27.0504 51.4177 26.7232 54.4838 26.4614 57.55C26.396 58.4633 25.8071 58.9852 25.0873 58.92C24.3675 58.8548 23.9094 58.2676 23.9748 57.3543C24.1711 54.4186 24.4983 51.4177 24.5638 48.482C24.8255 39.0878 23.6477 29.7588 21.8809 20.5603C21.5537 18.7989 21.3574 17.0375 21.1611 15.276C21.0956 15.0151 21.0302 14.7541 20.8339 14.4932C20.7684 14.6889 20.703 14.8194 20.6376 15.0151C19.7869 20.6255 18.7399 26.1707 18.0855 31.7811C17.562 36.2173 17.4312 40.7839 17.104 45.2853C17.104 45.5463 17.104 45.8725 17.104 46.1334C17.104 47.0467 16.5805 47.6339 15.7953 47.5686C15.0755 47.5686 14.552 46.9815 14.552 46.1334C14.6174 43.7196 14.6828 41.2406 14.8137 38.8268C15.2063 33.0859 15.9261 27.345 17.0385 21.6693C17.0385 21.5388 17.0385 21.4736 16.9077 21.2779C16.3842 22.5826 15.8607 23.9526 15.3372 25.2574C15.2063 25.5836 15.1409 25.9098 15.01 26.1707C14.6828 26.8883 14.0285 27.2145 13.3741 26.8883C12.7197 26.6274 12.3925 25.975 12.7197 25.1922C13.3741 23.3655 14.1593 21.6041 14.8791 19.7774C15.3372 18.6684 15.7298 17.5594 15.9916 16.3851C15.4681 17.4289 15.01 18.4727 14.4211 19.4512C13.8322 20.4298 12.9815 21.3431 12.3271 22.2565C11.6727 23.1698 10.9529 24.1483 10.364 25.0617C9.70965 26.0402 9.05528 27.0188 8.46635 28.0626C5.84889 32.2378 3.95122 36.413 3.10055 41.0449C1.85725 48.0253 2.8388 54.7448 5.65258 61.2685C5.78345 61.5295 5.84889 61.7252 5.97976 61.9862C6.24151 62.7038 5.97976 63.3561 5.39083 63.6171C4.8019 63.9433 4.01666 63.6823 3.68948 63.03C3.10055 61.7252 2.51162 60.3552 2.05356 58.9852C-1.41458 48.6124 -0.498468 38.5659 4.86734 29.0412C6.69956 25.7793 8.85897 22.7131 11.0184 19.647C11.9345 18.277 12.8506 16.907 13.3087 15.276C13.4395 14.7541 13.7013 14.2975 13.8322 13.906ZM16.8422 11.427C16.3842 8.29561 14.9446 6.0123 12.6543 4.31612C9.57877 2.09804 6.17607 2.48947 2.70793 2.5547C2.70793 2.88089 2.70793 3.14184 2.77336 3.33756C3.75491 7.18657 6.11063 9.92655 9.97139 10.8399C12.1308 11.3618 14.4211 11.2313 16.8422 11.427ZM21.8809 11.8837C22.0117 8.81751 22.6661 5.94706 23.844 3.20708C23.9094 3.07661 23.844 2.81565 23.7785 2.68518C23.5168 2.35899 21.9463 2.48947 21.75 2.94613C20.3104 5.75135 19.5251 8.68704 19.3943 11.8837C20.1795 11.8837 20.9648 11.8837 21.8809 11.8837Z" fill="#CB9C3F"/>
<path d="M56.6276 31.9768C55.9078 31.9768 55.3189 31.3897 55.3189 30.7373C55.3189 30.0849 55.9078 29.4978 56.5622 29.4978C57.282 29.4978 57.8709 30.0197 57.8709 30.7373C57.8055 31.4549 57.282 31.9768 56.6276 31.9768Z" fill="#CB9C3F"/>
</svg>
