<svg width="45" height="80" viewBox="0 0 45 80" fill="none" xmlns="http://www.w3.org/2000/svg">
<path d="M40.1741 0.211482C41.154 0.845952 41.364 1.90338 41.364 2.96083C41.854 12.5484 36.0443 19.5981 29.3247 21.9949C29.1147 22.0654 28.8348 22.2769 28.7648 22.4884C27.5748 25.7313 26.3849 28.9036 25.195 32.1465C25.195 32.217 25.195 32.2875 25.195 32.358C25.8949 31.794 25.9649 31.0891 26.2449 30.3136C26.8049 28.6922 27.5748 27.0002 28.4848 25.5903C30.7946 21.995 34.2245 19.9506 38.2142 18.5406C39.6841 18.0471 41.2241 17.6947 42.764 17.3422C43.9539 17.0602 44.9338 17.9061 44.5838 19.1046C42.8339 25.0968 39.4042 29.6086 33.5945 32.1465C31.7046 32.9924 29.6747 33.063 27.7148 32.2875C27.2249 32.076 27.0149 32.358 26.7349 32.64C24.845 34.8959 23.655 37.5042 23.2351 40.4651C22.8151 43.285 22.1851 46.0343 21.6952 48.8542C21.6952 48.9952 21.6952 49.1362 21.6952 49.2772C22.9551 48.1492 24.145 47.1623 25.3349 46.0343C25.4749 45.9638 25.475 45.6819 25.545 45.5409C26.4549 39.3372 29.8147 35.0368 35.3444 32.358C37.6543 31.23 40.0341 30.2431 42.694 29.9611C44.6539 29.8201 45.3538 30.5251 44.7938 32.358C42.9739 38.9847 39.3341 44.1309 32.7545 46.7393C30.7946 47.5148 28.7648 47.6558 26.6649 47.2328C26.3149 47.1623 25.8949 47.2328 25.615 47.5148C24.145 48.9247 22.6751 50.3347 21.2052 51.8151C21.0652 51.9561 20.9252 52.238 20.9252 52.4495C20.2952 55.6219 19.2453 58.6533 18.1254 61.6846C18.1254 61.7551 18.1254 61.7551 18.1254 61.8256C19.1053 61.5436 19.5253 61.1911 20.0853 60.2042C21.5552 57.6663 22.6751 54.9169 25.195 53.225C27.6448 51.5331 30.2347 50.4051 33.1045 49.7707C35.9043 49.1362 38.7042 48.6427 41.504 48.2197C42.274 48.0787 43.1839 48.1493 43.9539 48.2902C44.8638 48.4312 45.1438 48.9247 44.9338 49.8411C44.8638 50.1231 44.7938 50.3346 44.7238 50.5461C42.9039 54.0709 40.8041 57.3843 37.5143 59.6402C32.5446 63.024 27.0849 64.011 21.2752 62.2486C20.9252 62.1781 20.4352 62.1781 20.1553 62.3191C18.1954 63.165 16.5855 64.434 15.9555 66.6194C15.6755 67.4654 15.1855 68.1703 14.8356 69.0163C15.0455 68.8048 15.3255 68.6638 15.4655 68.4523C17.2154 65.7029 19.8753 64.434 22.9551 63.9405C24.845 63.6585 26.8049 63.588 28.7648 63.588C30.9346 63.588 33.1745 63.7995 35.3444 64.011C36.1143 64.0815 37.0243 64.152 37.3743 65.0685C37.6543 65.9849 37.0943 66.7604 36.4643 67.3244C33.5945 70.3557 30.0947 72.3296 26.0349 73.1756C23.655 73.6691 21.3452 73.8806 18.9653 73.3166C17.3554 72.9641 16.3055 72.3296 14.9056 70.8492C13.9256 71.4132 12.9457 71.8362 12.2457 72.9641C11.0558 74.7265 9.72586 76.4184 8.39594 78.0398C7.69598 78.8153 6.78603 79.3793 5.87608 79.9432C5.66609 80.0842 5.10613 79.9433 4.89614 79.7318C4.54616 79.3793 4.82614 79.0973 5.17612 78.8858C7.97596 77.1939 9.86585 74.656 11.4758 71.9066C12.3857 70.3557 13.2956 68.8048 14.1356 67.2538C14.2756 66.9719 14.2056 66.5489 14.2056 66.2669V66.1964C13.7856 64.434 13.0157 63.2356 11.0558 62.7421C8.74591 62.1076 7.06601 60.2747 5.80608 58.2303C3.98618 55.4809 3.00624 52.379 1.9563 49.2772C1.32634 47.4443 0.766365 45.6819 0.136401 43.9194C-0.283575 42.58 0.276402 41.593 1.67632 41.5225C3.63621 41.452 5.45611 42.016 7.06602 43.0735C10.4958 45.2589 12.5257 48.4312 13.4356 52.3085C14.0656 54.9874 14.4856 57.7368 14.9056 60.4862C15.0455 61.1911 14.6956 61.9666 14.5556 62.7421C14.5556 62.9536 14.4856 63.2356 14.5556 63.447C14.6956 63.9405 14.9056 64.3635 15.1156 64.9979C15.5355 64.152 15.8855 63.447 16.1655 62.6716C17.1454 59.9222 18.1254 57.1023 19.0353 54.353C19.1053 54.1415 19.1753 53.8595 19.1053 53.648C18.6853 52.52 18.2654 51.3921 17.8454 50.3346C17.7754 50.1231 17.4254 49.9117 17.1454 49.7707C14.6956 48.4312 12.4557 46.8803 10.6358 44.7654C8.46592 42.2275 7.55599 39.1962 7.416 35.9533C7.27601 32.5695 7.76597 29.2561 8.32594 25.9428C8.53593 24.8853 9.37587 24.3919 10.2858 24.8853C11.5457 25.5903 12.8057 26.3657 13.9256 27.2822C18.6153 31.371 20.8552 36.5878 20.6452 42.7915C20.5752 44.8359 20.2253 46.8803 19.3153 48.7132C18.8253 49.7707 19.1753 50.5461 19.6653 51.6036C20.1553 49.0657 20.6452 46.7393 21.0652 44.4129C21.3452 42.7915 21.6952 41.1701 21.9752 39.5486C22.0451 38.9847 21.9751 38.4207 21.8352 37.8567C21.3452 35.9533 20.8552 34.1204 20.2953 32.217C20.1553 31.794 19.9453 31.371 19.5953 31.0186C16.2355 27.7052 15.1855 23.6869 15.7455 19.1751C16.0255 16.3552 17.0754 13.8878 18.5454 11.491C19.1053 10.5745 19.4553 9.58752 19.8753 8.60056C20.2253 7.8956 20.5052 6.97917 21.4152 6.90867C22.3951 6.83817 22.9551 7.61362 23.3751 8.38908C25.335 11.9844 26.2449 15.8618 25.8249 19.9506C25.405 23.9689 24.005 27.7052 21.7652 31.0186C21.6252 31.23 21.4852 31.4415 21.4852 31.653C21.7652 33.0629 22.1151 34.4024 22.6051 35.7418C23.2351 33.5564 23.7951 31.371 24.495 29.2561C25.335 26.7888 26.3149 24.3918 27.2248 21.9949C27.2948 21.713 27.4348 21.3605 27.3649 21.149C26.1049 17.6947 26.5949 14.3108 27.7848 10.9975C28.9747 7.68412 31.1446 5.14624 34.1544 3.24283C35.9043 2.11488 37.5842 1.05745 39.3341 0C39.7541 0.21149 39.9641 0.211482 40.1741 0.211482ZM18.5454 48.5722C18.7553 48.0787 18.8253 47.7967 18.8953 47.5148C21.3452 39.4076 17.9854 30.6661 10.7058 26.4363C9.65586 25.8018 9.51587 25.8723 9.30588 27.1412C9.30588 27.2117 9.30588 27.2822 9.30588 27.3527C9.09589 29.1151 8.88591 30.948 8.67592 32.7104C7.69597 39.4781 10.5658 45.1884 16.5155 48.3607C16.6555 48.4312 16.8654 48.5017 17.1454 48.6427C17.0054 48.2198 16.9355 48.0082 16.8655 47.7262C15.6755 44.3424 14.5556 40.9586 13.3657 37.5747C13.2257 37.0813 13.1557 36.6583 13.7156 36.5173C14.2756 36.3058 14.4856 36.7288 14.6256 37.1517C14.9056 37.9272 15.1156 38.7027 15.3955 39.5486C16.3755 42.3685 17.4254 45.3294 18.5454 48.5722ZM22.1851 61.1206C24.565 62.2486 28.4848 62.3191 31.4946 61.4026C37.4443 59.5697 41.294 55.3399 43.9539 49.8411C44.2339 49.2067 43.8839 49.1362 43.3939 49.1362C41.924 49.2772 40.5241 49.4182 39.0542 49.5592C35.4844 50.0527 31.9146 50.7576 28.6248 52.3791C25.6849 53.8595 23.3051 55.9744 21.9752 59.0762C21.9052 59.2877 21.7652 59.5697 21.6252 59.9222C21.9052 59.7812 22.0451 59.7107 22.1851 59.7107C25.7549 58.3007 29.3247 56.9613 32.8945 55.5514C33.3145 55.4104 33.8045 55.2694 34.0145 55.8334C34.2245 56.3973 33.8045 56.6089 33.3845 56.7499C32.0546 57.1728 30.7247 57.6663 29.4647 58.1598C27.0149 59.2172 24.635 60.2042 22.1851 61.1206ZM26.8049 44.8359C26.9449 44.7654 27.0149 44.7654 27.0149 44.7654C29.7447 42.5095 32.4745 40.2536 35.2044 37.9977C35.4844 37.7862 35.7644 37.5747 36.0443 37.5042C36.2543 37.4337 36.5343 37.5042 36.6743 37.6452C36.7443 37.7862 36.6743 38.0682 36.6043 38.2797C36.3943 38.6322 36.1143 38.9846 35.7644 39.2666C33.3145 41.311 30.7946 43.3555 28.3448 45.3999C27.9948 45.6818 27.6448 45.9638 27.2948 46.2458C29.1147 46.6688 31.8446 46.2458 34.0844 45.1179C38.2842 43.003 41.014 39.4782 42.8339 35.2484C43.3239 34.1204 43.6039 32.8514 43.9539 31.653C44.0939 31.1595 43.9539 30.8775 43.3939 30.948C38.4242 31.7235 33.9445 33.5564 30.4447 37.3633C28.4848 39.4782 27.2248 41.9455 26.8049 44.8359ZM39.8941 1.05745C37.7942 2.53788 35.7644 3.8068 33.9445 5.21673C30.2347 8.1071 28.0648 11.8434 28.0648 16.7077C28.0648 17.9061 28.1348 19.0341 28.2048 20.2325C28.2748 20.2325 28.3448 20.2325 28.4148 20.2325C28.5548 20.021 28.6248 19.8095 28.7648 19.5276C30.0247 17.2717 31.2146 15.0863 32.4745 12.8304C32.5445 12.6189 32.6845 12.4074 32.8245 12.3369C33.1045 12.2664 33.4545 12.1959 33.7345 12.2664C33.8745 12.3369 33.9445 12.8304 33.8045 13.0419C33.5245 13.6059 33.1745 14.0993 32.8245 14.6633C31.7746 16.5667 30.6546 18.5406 29.6047 20.444C29.8847 20.5145 30.0947 20.444 30.2347 20.3735C36.6043 17.3422 40.8741 10.786 40.3141 2.67887C40.2441 2.32638 40.0341 1.83291 39.8941 1.05745ZM7.276 50.4756C7.69597 50.8986 8.18596 51.2511 8.46594 51.7446C9.58587 53.648 10.7058 55.5514 11.7557 57.4548C12.4557 58.7238 13.0157 60.0632 13.7156 61.4026C13.7856 61.4026 13.9256 61.3321 13.9956 61.3321C13.6456 59.2172 13.4357 57.0318 13.0157 54.9169C12.3857 51.8151 11.2658 48.7837 9.23588 46.3163C7.34599 43.9899 4.89614 42.721 1.81632 42.7915C0.97637 42.7915 0.836361 43.003 1.18634 43.7784C1.39633 44.4129 1.74631 44.9769 1.9563 45.5409C2.79625 48.0787 3.56621 50.6166 4.40616 53.084C5.31611 55.6924 6.57604 58.0893 8.67592 59.9927C9.79585 60.9796 11.0558 61.7551 12.5957 62.1076C12.4557 61.7551 12.3857 61.4731 12.2457 61.2616C10.5658 58.1598 8.8859 55.1284 7.206 52.0266C6.85602 51.6036 6.71603 51.1101 7.276 50.4756ZM19.8753 29.5381C19.8753 29.2561 19.8053 28.9741 19.8053 28.6921C19.8053 26.5067 19.6653 24.2509 19.8753 22.0655C20.0153 20.5145 20.5052 19.0341 20.9252 17.5537C20.9952 17.3422 21.4152 17.2012 21.6952 16.9897C21.8352 17.2717 22.0451 17.6242 22.1851 17.9061C22.1851 17.9766 22.1152 18.1176 22.1152 18.1881C21.1352 21.008 20.7852 23.9688 20.9952 26.9297C21.0652 27.9872 21.2052 29.0446 21.3452 30.2431C21.4852 30.1021 21.5552 30.1021 21.5552 30.0316C24.075 25.3788 25.5449 20.5145 24.775 15.1568C24.425 12.6189 23.4451 10.2925 21.6952 8.1776C20.9952 9.51704 20.2953 10.7155 19.6653 11.9139C18.2654 14.6633 17.0754 17.4832 16.7955 20.585C16.5155 24.0393 17.6354 27.0002 19.8753 29.5381ZM15.9555 70.3557C15.9555 70.4967 15.9555 70.5672 15.9555 70.7082C17.0054 71.8361 18.3354 72.4706 19.8053 72.6116C26.0349 73.2461 31.3546 71.2722 35.6944 66.6899C35.8344 66.5489 35.9744 66.3374 36.1143 66.1259C36.3243 65.7029 36.3243 65.4209 35.7644 65.4209C35.2044 65.3504 34.5744 65.28 34.0145 65.2095C30.9346 64.9275 27.8548 64.5045 24.705 64.857C22.2551 65.139 20.0153 65.7734 18.0554 67.3948C17.5654 67.8178 17.0754 68.3113 16.6555 68.8048C19.6653 68.0293 22.6751 67.8883 25.615 67.7473C26.1049 67.7473 26.5949 67.6768 26.6649 68.3818C26.7349 69.0868 26.1749 69.0868 25.6849 69.0868C24.075 69.2278 22.4651 69.2278 20.9252 69.4393C19.2453 69.5803 17.6354 70.0032 15.9555 70.3557ZM28.1348 31.089C28.2048 31.1595 28.2048 31.23 28.2748 31.371C30.3047 31.935 32.2646 31.7235 34.0844 30.807C38.9842 28.4101 41.994 24.3213 43.6039 19.1751C43.8139 18.4701 43.6039 18.2586 42.9039 18.4701C40.6641 19.1751 38.4242 19.6686 36.3243 20.6555C32.8945 22.136 30.1647 24.4623 28.5548 27.9167C28.2748 28.4807 28.1348 28.9741 27.8548 29.7496C28.1348 29.5381 28.2048 29.5381 28.2748 29.4676C30.5147 27.9167 32.7545 26.2953 34.9944 24.7443C35.4144 24.4623 35.8343 24.2508 36.1843 24.8148C36.5343 25.3788 36.0443 25.6608 35.6944 25.8723C34.8544 26.4362 33.9445 26.9297 33.1045 27.5642C31.3546 28.6921 29.7447 29.8906 28.1348 31.089Z" fill="#CB9C3F"/>
</svg>
