<svg width="80" height="80" viewBox="0 0 80 80" fill="none" xmlns="http://www.w3.org/2000/svg">
<path d="M30.9785 0.101432C32.4028 0.405711 33.8271 0.608564 35.2006 1.1157C41.1012 3.14422 45.0689 7.15056 47.1037 13.0333C47.1545 13.1854 47.2563 13.3376 47.3071 13.5404C48.2227 12.7797 49.0366 12.019 49.9522 11.3597C61.0923 3.34706 76.607 9.38193 79.4048 22.7702C80.9817 30.3772 77.4718 38.2377 70.6046 42.4976C69.7398 43.0048 69.1803 43.6133 68.8242 44.5769C67.9595 47.0111 66.4843 49.141 64.6531 51.0174C55.1916 60.4501 45.6793 69.8827 36.2179 79.3154C35.3023 80.2282 34.8445 80.2282 33.9289 79.3154C24.5183 69.9334 15.0569 60.5515 5.64633 51.1696C-1.88211 43.664 -1.88211 31.8479 5.64633 24.4945C6.91803 23.2266 8.5458 22.3138 10.021 21.2995C10.4279 21.046 10.5805 20.8431 10.5296 20.336C10.1227 15.2139 11.6487 10.6498 14.9551 6.69414C15.4638 6.08558 16.176 6.03487 16.6847 6.44058C17.2442 6.89699 17.2442 7.55627 16.6847 8.21554C14.1921 11.4105 13.073 14.149 12.8187 17.5975C18.5668 18.9667 24.3657 20.3867 30.1138 21.7559C30.2155 21.6545 30.2664 21.6038 30.2664 21.6038C31.6907 18.9667 33.5219 18.1553 36.3197 19.3217C38.1509 20.0824 39.7787 21.2488 41.559 22.2124C41.9151 22.4152 42.3729 22.5673 42.7799 22.5166C44.4077 22.3645 45.8828 22.6688 47.2562 23.5816C47.5106 23.7338 47.9175 23.7338 48.2736 23.7338C50.2066 23.5816 52.0887 23.2773 54.0217 23.1759C54.7338 23.1252 55.4968 23.4295 56.209 23.6323C57.8876 24.2409 58.7015 25.5087 58.8541 27.233C58.905 27.6894 58.8541 28.0951 58.8541 28.5515C60.431 28.9572 62.0079 29.3122 63.534 29.6672C63.6866 29.7179 63.8392 29.7179 63.9918 29.7686C64.7548 30.0222 65.1109 30.4786 64.9583 31.1886C64.8057 31.8479 64.2461 32.2029 63.4322 32C62.0079 31.6957 60.5836 31.3407 59.1593 30.9857C58.9559 30.935 58.7015 30.8843 58.3963 30.8336C58.1928 31.645 57.9894 32.4057 57.7859 33.2678C59.2102 33.6228 60.5836 33.9778 61.9062 34.2821C65.5178 35.1442 69.1294 36.0063 72.7411 36.8685C73.1989 36.9699 73.5041 36.9192 73.8093 36.5135C74.1654 35.9556 74.5723 35.3978 75.0301 34.7892C73.1989 34.3328 71.4694 33.9271 69.7907 33.5214C69.3838 33.42 68.9768 33.3185 68.5699 33.2171C67.8069 33.0143 67.3999 32.4057 67.5525 31.7972C67.7051 31.1379 68.3155 30.7829 69.0786 30.9857C71.215 31.4929 73.4023 32 75.5388 32.5071C75.6914 32.5578 75.844 32.5579 76.0475 32.6086C76.8105 30.8843 77.2174 29.0586 77.3192 27.1823C77.8278 18.6624 71.5202 11.1062 63.0762 10.0919C56.8703 9.33122 51.7835 11.5119 47.8667 16.3804C47.4597 16.8875 47.1037 17.3946 46.3406 17.2425C45.5776 17.0903 45.4759 16.4311 45.3233 15.8225C43.9498 8.82409 38.9139 3.8542 31.945 2.58637C28.1299 1.87639 24.4674 2.58638 21.0593 4.46277C20.8558 4.56419 20.6015 4.71633 20.398 4.86847C19.7367 5.17274 19.0754 5.02061 18.7702 4.46277C18.465 3.90492 18.6176 3.24564 19.2281 2.83994C21.5171 1.41997 24.0605 0.507141 26.7565 0.152149C26.96 0.101436 27.2143 0.0507132 27.4178 0C28.6895 0.101426 29.8086 0.101432 30.9785 0.101432ZM34.641 33.9271C33.9797 33.8764 33.4711 33.8764 32.9624 33.775C30.2664 33.3693 28.5369 32.1014 28.5877 29.2615C28.5877 28.7544 28.3334 28.6529 27.9265 28.5515C24.7218 27.7908 21.5171 27.0301 18.2616 26.2187C16.939 25.9144 15.6164 25.5594 14.243 25.2552C14.1921 25.3059 14.1413 25.3566 14.0395 25.458C21.2628 37.2235 28.5369 48.9889 35.811 60.8558C47.6632 53.6038 59.5154 46.504 71.3676 39.1506C71.1133 38.9984 71.1133 38.9477 71.0624 38.897C66.5352 37.7813 62.0079 36.7163 57.4807 35.6006C57.0229 35.4992 56.8194 35.6513 56.6159 36.0063C55.4968 37.7813 54.0217 38.3899 51.987 37.9334C50.9696 37.6799 50.054 37.2742 49.0366 36.9699C49.1384 37.1727 49.2401 37.4263 49.3418 37.6292C50.5627 39.962 51.8344 42.2948 53.0552 44.6276C53.3095 45.1347 53.4621 45.6418 53.0552 46.149C52.6482 46.6561 52.1396 46.6561 51.58 46.504C50.2575 46.149 48.9349 45.7433 47.5615 45.439C47.3071 45.3883 46.9002 45.4897 46.6967 45.6418C45.6793 46.5547 44.7129 47.4675 43.7464 48.4311C43.2886 48.8368 42.8816 49.1918 42.2203 48.8875C41.559 48.6339 41.5082 48.0761 41.5082 47.4675C41.5082 44.5769 41.5082 41.6355 41.4573 38.7448C41.4573 38.4913 41.4573 38.187 41.4064 37.6799C41.1521 38.1363 40.9995 38.3391 40.8978 38.5927C39.5243 41.1791 38.2018 43.8162 36.8283 46.4025C36.574 46.9097 36.2179 47.3154 35.5566 47.2647C34.8954 47.214 34.641 46.8082 34.4375 46.2504C34.0306 45.0333 33.5728 43.8669 33.2167 42.6498C33.0132 41.9905 32.6572 41.7369 32.0468 41.6355C30.8259 41.4326 29.6051 41.1284 28.3843 40.8748C27.7739 40.7734 27.316 40.5198 27.1634 39.9113C27.0108 39.252 27.4178 38.8463 27.9265 38.4913C29.9103 37.122 31.8942 35.7021 33.878 34.3328C34.1323 34.3328 34.3358 34.1807 34.641 33.9271ZM11.0383 23.328C10.6822 23.5309 10.3262 23.683 10.021 23.9366C1.01735 29.6165 -0.254342 41.8891 7.37584 49.5468C15.9725 58.1173 24.5692 66.6371 33.1658 75.2076C33.8271 75.8669 34.3867 76.5262 35.048 77.2361C35.3532 76.9319 35.5566 76.7797 35.7092 76.5769C42.6781 69.6799 49.647 62.7322 56.6159 55.8352C59.1593 53.2995 61.6519 50.7639 64.0935 48.1775C64.8057 47.4168 65.3144 46.504 65.9248 45.6418C65.8739 45.5911 65.823 45.5404 65.7722 45.4897C64.1953 46.4533 62.5675 47.3661 60.9906 48.3803C60.075 48.9889 59.2102 49.6482 58.4472 50.4089C55.8529 52.9445 53.3095 55.4802 50.7661 58.0666C45.8828 62.935 40.9995 67.8035 36.1162 72.672C35.3023 73.4834 34.7428 73.5341 34.0306 72.8748C31.9959 70.8463 29.9103 68.8177 27.8756 66.7385C27.316 66.1807 27.316 65.5214 27.7739 65.0143C28.2317 64.5071 28.9438 64.5578 29.5034 65.1157C31.1311 66.6878 32.708 68.3106 34.3358 69.8827C34.5393 70.0856 34.7428 70.2884 34.8954 70.3899C40.0839 65.1664 45.2724 59.9937 50.3083 54.9224C50.2575 54.9731 50.0031 55.0745 49.7996 55.2266C45.3741 57.9144 40.9486 60.6022 36.5231 63.29C35.4549 63.9493 34.9971 63.7972 34.3358 62.7829C32.5554 59.8415 30.7242 56.9509 28.9438 54.0095C28.7912 53.7559 28.6386 53.5531 28.486 53.2995C25.2305 54.7195 22.5853 53.2995 21.4154 51.5753C20.6524 50.4596 20.2963 49.2425 20.398 47.8732C20.4998 46.149 21.3645 44.8304 22.6871 43.7655C21.9749 42.6498 21.3136 41.5848 20.6524 40.4691C18.1598 43.4105 15.9725 44.1712 13.3274 43.0555C11.1909 42.1426 9.71576 39.7084 9.9701 37.477C10.2753 34.6371 12.0048 33.0143 15.6164 32.3043C14.7008 30.8336 13.8361 29.4136 12.9204 27.9429C12.5644 28.1458 12.2592 28.3487 11.9539 28.5515C6.10414 32.71 5.34113 41.0269 10.4788 46.149C15.4638 51.1696 20.5506 56.1902 25.5865 61.2108C26.2478 61.8701 26.2987 62.5293 25.79 63.0365C25.2813 63.5436 24.62 63.4929 23.9588 62.8336C18.872 57.7623 13.7852 52.7924 8.74927 47.6704C2.44165 41.2805 3.76422 30.8336 11.3944 26.1173C11.547 26.0158 11.6996 25.8637 11.9031 25.7623C11.547 24.9509 11.2927 24.1902 11.0383 23.328ZM39.7787 23.7845C38.1509 22.7195 36.7266 21.5531 34.7936 21.2488C33.6237 21.046 32.7589 21.401 32.4537 22.5674C31.8433 24.748 31.2837 26.9287 30.8768 29.1093C30.6733 30.3265 31.182 30.935 32.4028 31.29C34.2341 31.8479 36.0653 31.3915 37.8966 31.0872C36.9809 28.2472 37.5405 25.8637 39.7787 23.7845ZM47.8667 33.3185C49.3418 34.5357 51.2748 35.5499 52.5974 35.7528C53.7165 35.9556 54.5304 35.7021 54.8356 34.5864C55.4968 32.3043 56.0564 29.9715 56.4633 27.6387C56.6668 26.523 56.1073 26.0158 54.9882 25.6609C53.0552 25.0523 51.2239 25.5594 49.2401 25.8637C50.4609 28.7036 50.0031 31.1379 47.8667 33.3185ZM47.5615 28.7036C47.5615 26.5737 45.8319 24.8494 43.6955 24.7987C41.559 24.748 39.7787 26.5737 39.7787 28.7036C39.7787 30.8336 41.5082 32.5578 43.6955 32.5578C45.8319 32.5578 47.5615 30.8336 47.5615 28.7036ZM29.5542 23.9873C24.0096 22.6688 18.5159 21.3502 12.8696 19.981C12.9713 20.7924 13.073 21.4517 13.1748 22.1109C13.2256 22.5674 13.48 22.7702 13.9378 22.8716C17.1933 23.6323 20.4489 24.4437 23.7044 25.2044C25.4339 25.6101 27.1634 26.0159 28.9438 26.4723C29.1473 25.6101 29.3508 24.8495 29.5542 23.9873ZM15.4638 34.7385C13.6835 34.7385 12.2592 36.2092 12.2592 37.9841C12.2592 39.7084 13.7852 41.2298 15.5147 41.1791C17.2951 41.1791 18.872 39.7084 18.7194 37.9841C18.6176 36.6656 17.3968 34.5864 15.4638 34.7385ZM31.2837 39.2013C32.1994 39.4041 32.9115 39.607 33.6745 39.7084C34.4884 39.8098 34.9462 40.2155 35.1497 40.9762C35.3532 41.6862 35.6584 42.3962 35.9636 43.2583C37.5914 40.1141 39.1174 37.122 40.6943 34.1807C39.6769 33.3185 39.6769 33.3185 38.6596 34.0285C37.7948 34.6371 36.9301 35.1949 36.1162 35.8035C34.5393 36.9192 32.9624 38.0349 31.2837 39.2013ZM43.9498 34.9921C43.9498 38.3391 43.9498 41.6862 43.9498 45.1854C44.6111 44.5262 45.1707 44.0697 45.6285 43.5626C46.188 42.9033 46.8493 42.7512 47.6632 43.0555C48.3753 43.309 49.0875 43.4612 49.9522 43.664C48.4771 40.9255 47.1036 38.3391 45.7302 35.7528C45.1707 34.6878 45.1707 34.6878 43.9498 34.9921ZM23.9079 45.8447C22.5853 46.8589 22.2801 48.6339 23.1449 50.0539C24.0096 51.4231 25.7391 51.9303 27.2143 51.2203C26.0952 49.4453 24.9761 47.6196 23.9079 45.8447Z" fill="#CB9C3F"/>
</svg>
