<svg width="19" height="20" viewBox="0 0 19 20" fill="none" xmlns="http://www.w3.org/2000/svg">
<path d="M0.285774 20C0.055256 19.8627 -0.0241767 19.6685 0.00619565 19.3963C0.165845 17.9808 0.313035 16.5636 0.464897 15.1473C0.600404 13.8799 0.735909 12.6117 0.871417 11.3444C1.00848 10.0637 1.14633 8.78307 1.28417 7.50243C1.35037 6.88785 1.41189 6.27325 1.48431 5.65945C1.52481 5.3155 1.67979 5.18371 2.02712 5.18293C2.86586 5.18059 3.70383 5.18214 4.54258 5.18214C4.61267 5.18214 4.68275 5.18214 4.77231 5.18214C4.77231 4.90917 4.7692 4.65648 4.77309 4.40456C4.79957 2.74565 5.50515 1.465 6.92019 0.595382C8.58444 -0.427104 10.8756 -0.100313 12.2143 1.32774C13.0274 2.19502 13.423 3.22219 13.43 4.40534C13.4315 4.65726 13.43 4.90917 13.43 5.18136C13.5219 5.18136 13.592 5.18136 13.6613 5.18136C14.4611 5.18136 15.2601 5.18058 16.0599 5.18136C16.4571 5.18214 16.6027 5.3007 16.6471 5.69769C16.7764 6.84808 16.8963 8.00002 17.0202 9.15119C17.1572 10.4318 17.2951 11.7125 17.4321 12.9931C17.5676 14.2605 17.7039 15.5287 17.8394 16.796C17.9321 17.6625 18.017 18.5306 18.1198 19.3956C18.1517 19.6678 18.0707 19.862 17.8402 19.9992C11.9893 20 6.13751 20 0.285774 20ZM2.33396 6.06269C1.86981 10.4006 1.40722 14.7292 0.943847 19.0594C6.39919 19.0594 11.8234 19.0594 17.2569 19.0594C16.792 14.716 16.3294 10.3897 15.8668 6.06659C15.0109 6.06659 14.1761 6.06659 13.3256 6.06659C13.3256 6.28107 13.3334 6.48228 13.3233 6.68273C13.3163 6.81687 13.3599 6.88472 13.4845 6.94946C13.9183 7.17251 14.155 7.54143 14.169 8.02966C14.1831 8.50854 13.9759 8.89071 13.5686 9.14262C12.951 9.52479 12.1598 9.31811 11.8117 8.69729C11.4472 8.04761 11.6816 7.27859 12.3467 6.9323C12.3989 6.905 12.476 6.85665 12.4783 6.81453C12.4908 6.56417 12.4846 6.31305 12.4846 6.06581C10.1809 6.06581 7.90845 6.06581 5.62196 6.06581C5.62196 6.27249 5.63053 6.46746 5.61884 6.66167C5.61028 6.80829 5.65311 6.88629 5.79329 6.9596C6.56584 7.36595 6.69434 8.43757 6.04328 9.00535C5.64455 9.3532 5.18663 9.43977 4.70067 9.23075C4.2077 9.01861 3.94213 8.61772 3.93357 8.08347C3.92578 7.56482 4.17655 7.17876 4.63681 6.9323C4.68821 6.905 4.76297 6.85586 4.76453 6.81297C4.77699 6.56261 4.77075 6.31148 4.77075 6.06347C3.94447 6.06269 3.14701 6.06269 2.33396 6.06269ZM12.5601 5.17123C12.5313 4.67208 12.5492 4.19164 12.4682 3.72759C12.1325 1.8152 10.2993 0.567311 8.41154 0.972093C6.54792 1.37142 5.41091 3.02331 5.69672 5.17123C7.96764 5.17123 10.2393 5.17123 12.5601 5.17123ZM5.217 8.48515C5.43817 8.48671 5.61573 8.31122 5.61496 8.09206C5.61418 7.87602 5.42883 7.69351 5.21466 7.69741C5.00751 7.70131 4.8315 7.87679 4.82605 8.08504C4.81982 8.30186 4.99739 8.48281 5.217 8.48515ZM12.9752 8.48437C13.1971 8.48671 13.3739 8.31434 13.3731 8.09362C13.3731 7.87602 13.1909 7.69429 12.9752 7.69741C12.768 7.70053 12.5912 7.87523 12.585 8.08347C12.578 8.29951 12.7556 8.48203 12.9752 8.48437Z" fill="white"/>
</svg>
