<svg width="26" height="20" viewBox="0 0 26 20" fill="none" xmlns="http://www.w3.org/2000/svg">
<path d="M25.4107 1.2228C24.8873 0.335935 24.0984 0 23.1526 0C16.312 0.00516823 9.47145 0.00310093 2.6309 0.00413458C2.47122 0.00413458 2.31155 0.0113701 2.15282 0.0268748C0.975563 0.14471 0.00711566 1.24554 0.005226 2.52003C-0.00327745 7.50633 0.000500015 12.4916 0.0033345 17.4779C0.0033345 18.0071 0.159233 18.4898 0.45402 18.9095C1.00863 19.7013 1.76166 20.001 2.65546 20C9.47901 19.9938 16.3026 19.9969 23.1261 19.9959C23.2858 19.9959 23.4464 19.9969 23.6033 19.9742C24.5934 19.8305 25.2945 19.2702 25.6602 18.2407C25.714 18.0888 25.7461 17.9265 25.7877 17.7694C25.7877 12.5898 25.7877 7.4102 25.7877 2.23164C25.6658 1.8926 25.5874 1.52256 25.4107 1.2228ZM1.98085 1.13494C2.1925 1.11427 2.4032 1.07602 2.61484 1.07602C5.24241 1.07189 7.86903 1.07292 10.4966 1.07292C14.7105 1.07292 18.9235 1.07189 23.1375 1.07499C23.3585 1.07499 23.5806 1.1091 23.8017 1.12771C23.8092 1.15458 23.8168 1.18249 23.8244 1.20936C20.1877 4.56664 16.5511 7.92392 12.8965 11.2977C9.24659 7.92909 5.60806 4.56974 1.96858 1.21143C1.97331 1.18662 1.97707 1.16078 1.98085 1.13494ZM1.05682 17.9761C1.03225 17.7622 0.985013 17.5482 0.985013 17.3332C0.981233 12.4503 0.980289 7.56732 0.985958 2.68438C0.985958 2.42596 1.05304 2.16755 1.088 1.90914C1.1154 1.89881 1.14185 1.8895 1.16925 1.87917C3.75336 4.26379 6.33841 6.64944 8.94519 9.05576C6.33369 12.0482 3.73541 15.024 1.13713 17.9999C1.11067 17.9927 1.08422 17.9844 1.05682 17.9761ZM23.9273 18.8309C23.6836 18.863 23.4407 18.9209 23.197 18.9219C21.4339 18.9302 19.6718 18.926 17.9088 18.926C12.8133 18.926 7.7188 18.9271 2.62334 18.9219C2.36729 18.9219 2.11124 18.8609 1.8552 18.8289C1.85425 18.7979 1.8533 18.7669 1.8533 18.7358C4.46103 15.7486 7.06781 12.7624 9.69444 9.75347C9.92497 9.96434 10.1489 10.1669 10.3709 10.3716C11.0947 11.0424 11.8175 11.7133 12.5403 12.3851C12.7802 12.6084 13.0259 12.5919 13.2838 12.3521C14.2107 11.49 15.1395 10.6321 16.0938 9.74831C18.7157 12.7521 21.3309 15.7476 23.9453 18.7431C23.9387 18.7731 23.933 18.802 23.9273 18.8309ZM24.8041 17.3559C24.8041 17.5668 24.7522 17.7777 24.7134 18.0691C22.0604 15.0302 19.4668 12.0595 16.8468 9.05783C19.4403 6.66391 22.0245 4.27826 24.6086 1.8926C24.6388 1.89777 24.6681 1.90294 24.6983 1.90811C24.7352 2.15618 24.8032 2.40426 24.8032 2.65337C24.8098 7.55491 24.8089 12.4554 24.8041 17.3559Z" fill="#CB9C3F"/>
</svg>
