<svg width="9" height="17" viewBox="0 0 9 17" fill="none" xmlns="http://www.w3.org/2000/svg">
<path d="M7.96951 0.834467C7.1652 0.826998 6.36089 0.814553 5.55908 0.836959C4.07573 0.876793 2.92314 1.74069 2.57234 3.0826C2.48465 3.41621 2.47463 3.77223 2.4646 4.11829C2.44706 4.62368 2.45959 5.12906 2.45959 5.65934C2.12884 5.65934 1.83818 5.65685 1.55003 5.65934C1.12658 5.66432 0.916109 5.86349 0.913603 6.28175C0.906086 6.96141 0.908592 7.64109 0.913603 8.31827C0.916109 8.75146 1.12658 8.94815 1.57008 8.95313C1.85072 8.95562 2.13135 8.95313 2.45959 8.95313C2.45959 9.10998 2.45959 9.22698 2.45959 9.34648C2.45959 11.4726 2.45959 13.6012 2.45959 15.7274C2.45959 16.3274 2.61745 16.4817 3.23133 16.4842C3.97551 16.4842 4.71969 16.4842 5.46136 16.4842C6.08276 16.4842 6.24563 16.3199 6.24563 15.7C6.24563 13.5739 6.24563 11.4452 6.24563 9.3191C6.24563 9.20457 6.24563 9.09006 6.24563 8.95313C6.79437 8.95313 7.2955 8.95811 7.79412 8.95064C8.15243 8.94566 8.35288 8.75643 8.38545 8.4054C8.4481 7.75063 8.51074 7.09336 8.55834 6.4361C8.60094 5.83859 8.42304 5.65688 7.8267 5.65688C7.30803 5.65688 6.78936 5.65688 6.24563 5.65688C6.24563 5.25854 6.24062 4.90001 6.24813 4.54151C6.25314 4.22284 6.34335 4.13323 6.66658 4.12825C7.09755 4.12079 7.53103 4.13074 7.962 4.12576C8.41302 4.11829 8.61097 3.92658 8.61598 3.48841C8.62099 2.8187 8.62099 2.14901 8.61598 1.48179C8.61347 1.04113 8.41552 0.839446 7.96951 0.834467Z" fill="#CB9C3F"/>
</svg>
