<svg width="16" height="16" viewBox="0 0 16 16" fill="none" xmlns="http://www.w3.org/2000/svg">
<path d="M11.8529 2.74414C11.318 2.74414 10.8861 3.17328 10.8861 3.70472C10.8861 4.23616 11.318 4.6653 11.8529 4.6653C12.3878 4.6653 12.8197 4.23616 12.8197 3.70472C12.8197 3.17328 12.3878 2.74414 11.8529 2.74414Z" fill="#CB9C3F"/>
<path d="M7.66261 3.81445C5.55461 3.81445 3.83846 5.51962 3.83846 7.61414C3.83846 9.70865 5.55461 11.4138 7.66261 11.4138C9.77062 11.4138 11.4868 9.70865 11.4868 7.61414C11.4868 5.51962 9.77062 3.81445 7.66261 3.81445ZM7.66261 9.70865C6.50135 9.70865 5.55461 8.76797 5.55461 7.61414C5.55461 6.46031 6.50135 5.51962 7.66261 5.51962C8.82388 5.51962 9.77062 6.46031 9.77062 7.61414C9.77062 8.76797 8.82674 9.70865 7.66261 9.70865Z" fill="#CB9C3F"/>
<path d="M11.564 0H3.76409C1.68755 0 0 1.67676 0 3.74001V11.49C0 13.5533 1.68755 15.23 3.76409 15.23H11.564C13.6405 15.23 15.3281 13.5533 15.3281 11.49V3.74001C15.3281 1.67676 13.6377 0 11.564 0ZM13.6119 11.49C13.6119 12.6126 12.6938 13.5248 11.564 13.5248H3.76409C2.63429 13.5248 1.71615 12.6126 1.71615 11.49V3.74001C1.71615 2.61744 2.63429 1.70517 3.76409 1.70517H11.564C12.6938 1.70517 13.6119 2.61744 13.6119 3.74001V11.49Z" fill="#CB9C3F"/>
</svg>
