<svg width="14" height="20" viewBox="0 0 14 20" fill="none" xmlns="http://www.w3.org/2000/svg">
<path d="M13.8247 6.24287C13.6764 4.90214 13.1949 3.69127 12.3506 2.63482C11.4373 1.49202 10.2825 0.698419 8.87821 0.28933C7.36641 -0.151907 5.86719 -0.090762 4.40128 0.488519C2.82033 1.11318 1.6178 2.18665 0.819473 3.68622C-0.0725198 5.36229 -0.226529 7.12598 0.309673 8.94954C0.764784 10.4964 1.47322 11.9292 2.26653 13.3222C3.32573 15.1817 4.55088 16.929 5.84518 18.6296C6.1928 19.0866 6.55677 19.531 6.9289 20C6.98611 19.9326 7.01817 19.8973 7.04771 19.8594C8.72923 17.7207 10.3001 15.5051 11.6428 13.1344C12.4022 11.7943 13.0817 10.4157 13.5324 8.93442C13.8002 8.05573 13.9266 7.15938 13.8247 6.24287ZM6.9069 9.85093C5.27441 9.8358 3.96754 8.51209 3.97634 6.88204C3.98514 5.23748 5.30835 3.91945 6.94336 3.92638C8.57397 3.93331 9.90347 5.27909 9.88838 6.90788C9.8733 8.55054 8.53939 9.86669 6.9069 9.85093Z" fill="#CB9C3F"/>
</svg>
