<svg width="20" height="20" viewBox="0 0 20 20" fill="none" xmlns="http://www.w3.org/2000/svg">
<path d="M19.1611 14.4578C18.3088 13.6185 17.4779 12.7575 16.6204 11.9243C16.0286 11.349 15.3202 11.1598 14.5466 11.499C14.2462 11.6308 13.9737 11.8543 13.7285 12.0799C13.275 12.4983 12.8493 12.9471 12.4175 13.3881C12.3409 13.4665 12.2828 13.4839 12.1857 13.4269C11.9002 13.2596 11.6011 13.1152 11.3229 12.937C10.3049 12.2853 9.40187 11.4941 8.58064 10.61C7.77796 9.74607 7.03534 8.83688 6.52253 7.76031C6.45681 7.62205 6.4802 7.5509 6.58421 7.44822C7.09703 6.94126 7.61992 6.442 8.10129 5.90635C8.79633 5.13258 8.79955 4.10493 8.09403 3.3437C7.34335 2.53355 6.54631 1.76665 5.77628 0.974288C5.34168 0.526764 4.88289 0.124919 4.2463 0C4.07738 0 3.90886 0 3.73994 0C3.25776 0.0990454 2.83767 0.321396 2.48814 0.665832C1.96484 1.18127 1.44718 1.70237 0.932757 2.22671C0.310686 2.8606 0.020414 3.63275 0.00146564 4.51607C-0.018289 5.42567 0.163133 6.3005 0.456228 7.15472C1.51169 10.2324 3.36178 12.7878 5.65856 15.0387C7.18653 16.5361 8.92373 17.7493 10.8367 18.7054C12.1268 19.3502 13.458 19.8661 14.9126 19.9829C15.8391 20.0577 16.718 19.8992 17.4219 19.2605C18.0798 18.6638 18.695 18.0166 19.299 17.3637C20.1178 16.4775 20.0428 15.3266 19.1611 14.4578Z" fill="#CB9C3F"/>
</svg>
