<svg width="20" height="20" viewBox="0 0 20 20" fill="none" xmlns="http://www.w3.org/2000/svg">
<path d="M19.1987 20C19.0458 19.8936 18.8745 19.8065 18.7445 19.6781C17.1052 18.0712 15.4714 16.458 13.8358 14.8465C13.7946 14.8062 13.7515 14.7676 13.7012 14.7209C13.6444 14.7594 13.5904 14.7924 13.54 14.8309C12.4557 15.6582 11.2413 16.1975 9.90151 16.4268C7.89865 16.7689 5.99287 16.4699 4.22355 15.4482C2.3892 14.3898 1.08052 12.871 0.434879 10.845C-0.413152 8.18339 -0.0239375 5.68415 1.62908 3.42612C3.0037 1.5487 4.87834 0.438949 7.17609 0.0986847C9.15696 -0.194804 11.0307 0.163803 12.7542 1.20844C14.725 2.40349 16.0474 4.10756 16.575 6.35826C17.2114 9.07303 16.5786 11.509 14.7928 13.646C14.7553 13.6909 14.7168 13.7349 14.6792 13.7799C14.671 13.79 14.6655 13.8019 14.6463 13.834C14.6838 13.8743 14.7259 13.9202 14.7699 13.9633C16.3909 15.5619 18.0137 17.1577 19.631 18.76C19.7656 18.8939 19.8645 19.0645 19.9799 19.2177C19.9799 19.3085 19.9799 19.4002 19.9799 19.491C19.8947 19.7441 19.7207 19.9083 19.4725 19.9991C19.381 20 19.2903 20 19.1987 20ZM1.30214 8.24117C1.31771 8.53099 1.31679 8.77312 1.34518 9.01158C1.5256 10.5221 2.09889 11.8612 3.14656 12.9691C4.98 14.908 7.24569 15.6371 9.84107 15.1317C12.1168 14.6888 13.8175 13.3772 14.8258 11.2678C15.8423 9.14182 15.78 6.99293 14.6426 4.9385C13.4768 2.83364 11.637 1.63308 9.25129 1.33959C7.36749 1.10755 5.6348 1.56613 4.11548 2.71899C2.2793 4.11215 1.36533 5.98956 1.30214 8.24117Z" fill="white"/>
</svg>
