<svg width="19" height="16" viewBox="0 0 19 16" fill="none" xmlns="http://www.w3.org/2000/svg">
<path d="M18.4838 1.90055C18.1834 1.99409 17.883 2.10991 17.5737 2.18118C17.2689 2.2569 16.964 2.38162 16.6009 2.34153C17.6678 1.32593 17.9996 0.858235 18.0086 0.354888C17.363 0.706785 16.695 0.974062 15.9912 1.14778C15.7894 1.19678 15.6325 1.18341 15.4577 1.02751C14.2517 -0.054912 12.6064 -0.299886 11.1853 0.377182C9.73278 1.06761 8.90789 2.49302 8.99755 4.15896C9.02894 4.74694 9.02894 4.74249 8.41475 4.66677C5.58593 4.31487 3.21886 3.08542 1.33596 0.951762C1.1387 0.724588 1.07146 0.764679 0.954898 1.00967C0.237604 2.5108 0.6097 4.35495 1.87393 5.49082C1.96808 5.57545 2.11153 5.61997 2.12947 5.79369C1.68116 5.80705 1.2732 5.68237 0.887651 5.49974C0.627632 5.37947 0.53797 5.40618 0.578318 5.70908C0.78454 7.35275 1.66323 8.46189 3.21886 9.04542C3.313 9.08105 3.44301 9.05431 3.48784 9.1924C3.0754 9.31712 2.65847 9.32605 2.24603 9.2726C1.89186 9.2236 1.94566 9.3572 2.04877 9.57101C2.57778 10.7158 3.44301 11.4597 4.67586 11.776C4.91795 11.8383 5.16452 11.8695 5.48281 11.9274C3.81511 13.1746 1.99497 13.6423 0 13.5443C0.0582801 13.6245 0.107594 13.6601 0.161391 13.6913C3.5775 15.5889 7.12811 15.8161 10.6204 14.0922C14.6776 12.0878 16.574 8.61776 16.7174 4.16782C16.7264 3.90056 16.7847 3.72684 17.0043 3.55757C17.6006 3.10322 18.1251 2.5732 18.5241 1.93622C18.5465 1.90949 18.5645 1.88275 18.5286 1.86048C18.5241 1.86048 18.5017 1.88719 18.4838 1.90055Z" fill="#CB9C3F"/>
</svg>
