<svg width="20" height="20" viewBox="0 0 20 20" fill="none" xmlns="http://www.w3.org/2000/svg">
<path d="M19.8283 17.9313C19.2615 14.464 16.548 11.5616 13.1356 10.7378C11.6013 10.3679 10.0456 10.4689 8.49284 10.503C8.00271 10.513 7.50689 10.5969 7.02529 10.7051C2.95934 11.6199 0.039867 15.2209 8.83104e-05 19.3555C-0.00417369 19.8449 0.144996 20 0.629444 20C3.73928 20 6.85054 20 9.96038 20C13.0859 20 16.2127 20 19.3382 20C19.7815 20 19.9889 19.8051 19.9647 19.3626C19.9392 18.8831 19.9051 18.4022 19.8283 17.9313ZM0.930625 19.0368C0.998817 18.5886 1.03718 18.1518 1.13378 17.7278C1.89242 14.4142 4.51639 11.9656 7.88479 11.5203C8.93608 11.3809 10.0158 11.4463 11.0841 11.4406C11.4848 11.4392 11.8882 11.4805 12.2846 11.5388C15.582 12.024 18.3693 14.7756 18.9006 18.0636C18.9504 18.3752 18.983 18.6896 19.0285 19.0368C12.985 19.0368 6.98835 19.0368 0.930625 19.0368Z" fill="white"/>
<path d="M9.9915 9.5256C12.6311 9.50283 14.7536 7.36726 14.7323 4.75222C14.711 2.07173 12.5828 -0.0225804 9.90484 0.000183821C7.30786 0.0229481 5.20527 2.18982 5.23368 4.81624C5.26068 7.42702 7.40446 9.54836 9.9915 9.5256ZM9.9915 0.952014C12.1452 0.98047 13.8216 2.69774 13.7889 4.84327C13.7577 6.93474 12.0145 8.6008 9.89489 8.56381C7.80509 8.52824 6.14433 6.78535 6.17985 4.66401C6.21394 2.62092 7.95426 0.924982 9.9915 0.952014Z" fill="white"/>
</svg>
