<svg width="23" height="16" viewBox="0 0 23 16" fill="none" xmlns="http://www.w3.org/2000/svg">
<path d="M0 11.393C0 9.04411 0 6.69518 0 4.34625C0.0387551 4.11145 0.0642767 3.87384 0.118156 3.64279C0.639932 1.44132 2.4567 0.00434605 4.73191 0.00246766C9.04979 -0.00128912 13.3686 -0.00128913 17.6865 0.00622445C18.041 0.00716364 18.4049 0.0344003 18.749 0.114232C20.941 0.621398 22.39 2.42372 22.4023 4.66276C22.4137 6.80037 22.408 8.93892 22.4033 11.0775C22.4014 11.903 22.2208 12.691 21.7908 13.4029C20.8578 14.946 19.473 15.7312 17.6648 15.7349C13.3611 15.7443 9.05735 15.7378 4.75365 15.7378C4.644 15.7378 4.53435 15.7359 4.42565 15.7312C2.41795 15.6401 0.673024 14.2369 0.17488 12.3059C0.0983148 12.0063 0.05766 11.6973 0 11.393ZM8.12346 7.86542C8.12346 8.81495 8.12252 9.76447 8.12346 10.714C8.12346 11.1103 8.26806 11.2043 8.62158 11.0371C10.5745 10.112 12.5264 9.18593 14.4793 8.26082C14.6126 8.19789 14.7818 8.12839 14.743 7.96216C14.7175 7.85227 14.5946 7.73299 14.4859 7.67758C12.533 6.68579 10.5764 5.70245 8.61972 4.71911C8.28132 4.54912 8.12441 4.6421 8.12441 5.01684C8.12252 5.96636 8.12346 6.91589 8.12346 7.86542Z" fill="#CB9C3F"/>
</svg>
