<svg width="100" height="100" viewBox="0 0 100 100" fill="none" xmlns="http://www.w3.org/2000/svg">
<g clip-path="url(#clip0_7_23)">
<path d="M38.9765 27C40.5608 27.2215 41.8576 28.0675 43.1786 28.8777C51.6913 34.0956 60.21 39.3056 68.7307 44.5116C70.9645 45.8765 72.1366 47.826 71.9878 50.444C71.8652 52.6289 70.7795 54.2991 68.9077 55.4405C62.3854 59.4153 55.8531 63.3802 49.3228 67.341C48.3477 67.9317 47.25 67.6962 46.7172 66.8143C46.1683 65.9083 46.4759 64.8747 47.4993 64.2522C53.935 60.3372 60.3728 56.4222 66.8127 52.5132C67.5445 52.0682 68.1316 51.5195 68.3206 50.6495C68.594 49.3884 68.1034 48.3468 66.873 47.5945C63.5656 45.5672 60.2542 43.5439 56.9449 41.5205C51.261 38.0445 45.5812 34.5646 39.8953 31.0906C38.504 30.2405 36.8976 30.5239 36.0833 31.8069C35.838 32.194 35.7657 32.6929 35.6269 33.1438C35.5928 33.2536 35.6169 33.3813 35.6169 33.501C35.6169 44.4578 35.6169 55.4145 35.6169 66.3713C35.6169 67.8179 36.3105 68.8336 37.541 69.2546C38.2648 69.5021 38.9343 69.3903 39.5817 69.0272C40.024 68.7797 40.4784 68.6061 41.0032 68.7179C41.7752 68.8835 42.3181 69.4282 42.4548 70.1925C42.5794 70.8849 42.2618 71.6152 41.6164 71.9963C39.4651 73.2634 37.2675 73.3711 35.1102 72.0701C33.0112 70.8071 32.0039 68.8835 32.0019 66.4491C31.9979 60.7602 31.9999 55.0733 31.9999 49.3844C31.9999 44.0846 31.9999 38.7868 31.9999 33.4871C31.9999 31.0846 32.977 29.187 35.064 27.9478C35.7335 27.5507 36.5377 27.3751 37.2796 27.0998C37.3902 27.0599 37.5048 27.0339 37.6174 27C38.0698 27 38.5241 27 38.9765 27Z" fill="#CB9C3F"/>
</g>
<circle cx="50" cy="50" r="49" stroke="#CB9C3F" stroke-width="2"/>
<defs>
<clipPath id="clip0_7_23">
<rect width="40" height="46" fill="white" transform="translate(32 27)"/>
</clipPath>
</defs>
</svg>
